<svg fill="none" stroke="currentColor" stroke-width="16" stroke-linecap="round" stroke-linejoin="round" xmlns="http://www.w3.org/2000/svg" viewBox="-17.48 0.00 241.68 241.68"><path d="M272.62,208.15l.17-73.6h0l-32.73-.06a15.65,15.65,0,0,1-15.56-15.84V87.8l.22-.74h-97A15.77,15.77,0,0,0,112,102.9V296.06a15.77,15.77,0,0,0,15.7,15.84h67.11" transform="translate(-104.04 -79.06)"/><line x1="120.67" y1="8.01" x2="168.74" y2="55.49"/><path d="M291.9,232.14H241.7V185.28a11.36,11.36,0,1,0-22.72,0v46.86h-50.2a11.37,11.37,0,0,0,0,22.73H219v47a11.36,11.36,0,1,0,22.72,0v-47h50.2a11.37,11.37,0,0,0,0-22.73Z" transform="translate(-104.04 -79.06)"/></svg>