<svg xmlns="http://www.w3.org/2000/svg" viewBox="0 0 240 240" role="img" aria-label="PM DataCare">
<defs>
<linearGradient id="idb" x1="0" y1="0" x2="0" y2="1"><stop offset="0" stop-color="#2E8FE0"></stop><stop offset="1" stop-color="#1450B4"></stop></linearGradient>
<linearGradient id="igear" x1="0" y1="0" x2="1" y2="1"><stop offset="0" stop-color="#38A9E0"></stop><stop offset="1" stop-color="#1E63D6"></stop></linearGradient>
<linearGradient id="ish" x1="0" y1="0" x2="0" y2="1"><stop offset="0" stop-color="#3ECFDC"></stop><stop offset="1" stop-color="#00A79D"></stop></linearGradient>
<mask id="icut"><rect width="240" height="240" fill="white"></rect><path d="M 170 112 C 185 120 200 124 212 126 L 212 160 C 212 192 194 210 170 220 C 146 210 128 192 128 160 L 128 126 C 140 124 155 120 170 112 Z" fill="black" stroke="black" stroke-width="14" stroke-linejoin="round"></path></mask>
<mask id="igcut"><rect width="240" height="240" fill="white"></rect><ellipse cx="105" cy="70" rx="58" ry="21" fill="black"></ellipse><rect x="49" y="70" width="116" height="112" fill="black"></rect><path d="M 170 112 C 185 120 200 124 212 126 L 212 160 C 212 192 194 210 170 220 C 146 210 128 192 128 160 L 128 126 C 140 124 155 120 170 112 Z" fill="black" stroke="black" stroke-width="18" stroke-linejoin="round"></path></mask>
<mask id="iocut"><rect width="240" height="240" fill="white"></rect><circle cx="176" cy="78" r="57" fill="black"></circle><path d="M 170 112 C 185 120 200 124 212 126 L 212 160 C 212 192 194 210 170 220 C 146 210 128 192 128 160 L 128 126 C 140 124 155 120 170 112 Z" fill="black" stroke="black" stroke-width="18" stroke-linejoin="round"></path></mask>
<linearGradient id="iorb" gradientUnits="userSpaceOnUse" x1="90" y1="209" x2="17" y2="122"><stop offset="0" stop-color="#00A79D"></stop><stop offset="1" stop-color="#2879CE"></stop></linearGradient>
</defs>
<g mask="url(#iocut)"><circle cx="105" cy="122" r="88" fill="none" stroke="url(#iorb)" stroke-width="11" stroke-dasharray="420 400" transform="rotate(55 105 122)"></circle></g>
<g mask="url(#igcut)">
<g><path d="M 167 50 L 170.3 30.6 Q 170.5 29 172 29 L 180 29 Q 181.5 29 181.7 30.6 L 185 50 Z" fill="url(#igear)" transform="rotate(1 176 78)"></path><path d="M 167 50 L 170.3 30.6 Q 170.5 29 172 29 L 180 29 Q 181.5 29 181.7 30.6 L 185 50 Z" fill="url(#igear)" transform="rotate(46 176 78)"></path><path d="M 167 50 L 170.3 30.6 Q 170.5 29 172 29 L 180 29 Q 181.5 29 181.7 30.6 L 185 50 Z" fill="url(#igear)" transform="rotate(91 176 78)"></path><path d="M 167 50 L 170.3 30.6 Q 170.5 29 172 29 L 180 29 Q 181.5 29 181.7 30.6 L 185 50 Z" fill="url(#igear)" transform="rotate(136 176 78)"></path><path d="M 167 50 L 170.3 30.6 Q 170.5 29 172 29 L 180 29 Q 181.5 29 181.7 30.6 L 185 50 Z" fill="url(#igear)" transform="rotate(181 176 78)"></path><path d="M 167 50 L 170.3 30.6 Q 170.5 29 172 29 L 180 29 Q 181.5 29 181.7 30.6 L 185 50 Z" fill="url(#igear)" transform="rotate(226 176 78)"></path><path d="M 167 50 L 170.3 30.6 Q 170.5 29 172 29 L 180 29 Q 181.5 29 181.7 30.6 L 185 50 Z" fill="url(#igear)" transform="rotate(271 176 78)"></path><path d="M 167 50 L 170.3 30.6 Q 170.5 29 172 29 L 180 29 Q 181.5 29 181.7 30.6 L 185 50 Z" fill="url(#igear)" transform="rotate(316 176 78)"></path></g>
<circle cx="176" cy="78" r="27" fill="none" stroke="url(#igear)" stroke-width="15"></circle>
</g>
<g mask="url(#icut)">
<ellipse cx="105" cy="70" rx="52" ry="15" fill="url(#idb)"></ellipse>
<path d="M 53 78 A 52 15 0 0 0 157 78 L 157 106 A 52 15 0 0 1 53 106 Z" fill="url(#idb)"></path>
<path d="M 53 112 A 52 15 0 0 0 157 112 L 157 140 A 52 15 0 0 1 53 140 Z" fill="url(#idb)"></path>
<path d="M 53 146 A 52 15 0 0 0 157 146 L 157 174 A 52 15 0 0 1 53 174 Z" fill="url(#idb)"></path>
</g>
<path d="M 170 112 C 185 120 200 124 212 126 L 212 160 C 212 192 194 210 170 220 C 146 210 128 192 128 160 L 128 126 C 140 124 155 120 170 112 Z" fill="#FFFFFF" stroke="#FFFFFF" stroke-width="14" stroke-linejoin="round"></path>
<path d="M 170 112 C 185 120 200 124 212 126 L 212 160 C 212 192 194 210 170 220 C 146 210 128 192 128 160 L 128 126 C 140 124 155 120 170 112 Z" fill="url(#ish)"></path>
<polyline points="150,166 165,181 192,146" fill="none" stroke="#FFFFFF" stroke-width="12" stroke-linecap="round" stroke-linejoin="round"></polyline>
</svg>