<svg xmlns="http://www.w3.org/2000/svg" viewBox="0 0 420 84" role="img" aria-label="PM DataCare">
<svg x="0" y="2" width="80" height="80" viewBox="0 0 240 240"><defs>
<linearGradient id="ddb" x1="0" y1="0" x2="0" y2="1"><stop offset="0" stop-color="#2E8FE0"></stop><stop offset="1" stop-color="#1450B4"></stop></linearGradient>
<linearGradient id="dgear" x1="0" y1="0" x2="1" y2="1"><stop offset="0" stop-color="#38A9E0"></stop><stop offset="1" stop-color="#1E63D6"></stop></linearGradient>
<linearGradient id="dsh" x1="0" y1="0" x2="0" y2="1"><stop offset="0" stop-color="#3ECFDC"></stop><stop offset="1" stop-color="#00A79D"></stop></linearGradient>
<mask id="dcut"><rect width="240" height="240" fill="white"></rect><path d="M 170 112 C 185 120 200 124 212 126 L 212 160 C 212 192 194 210 170 220 C 146 210 128 192 128 160 L 128 126 C 140 124 155 120 170 112 Z" fill="black" stroke="black" stroke-width="14" stroke-linejoin="round"></path></mask>
<mask id="dgcut"><rect width="240" height="240" fill="white"></rect><ellipse cx="105" cy="70" rx="58" ry="21" fill="black"></ellipse><rect x="49" y="70" width="116" height="112" fill="black"></rect><path d="M 170 112 C 185 120 200 124 212 126 L 212 160 C 212 192 194 210 170 220 C 146 210 128 192 128 160 L 128 126 C 140 124 155 120 170 112 Z" fill="black" stroke="black" stroke-width="18" stroke-linejoin="round"></path></mask>
<mask id="docut"><rect width="240" height="240" fill="white"></rect><circle cx="176" cy="78" r="57" fill="black"></circle><path d="M 170 112 C 185 120 200 124 212 126 L 212 160 C 212 192 194 210 170 220 C 146 210 128 192 128 160 L 128 126 C 140 124 155 120 170 112 Z" fill="black" stroke="black" stroke-width="18" stroke-linejoin="round"></path></mask>
<linearGradient id="dorb" gradientUnits="userSpaceOnUse" x1="90" y1="209" x2="17" y2="122"><stop offset="0" stop-color="#00A79D"></stop><stop offset="1" stop-color="#2879CE"></stop></linearGradient>
</defs>
<g mask="url(#docut)"><circle cx="105" cy="122" r="88" fill="none" stroke="url(#dorb)" stroke-width="11" stroke-dasharray="420 400" transform="rotate(55 105 122)"></circle></g>
<g mask="url(#dgcut)">
<g><path d="M 167 50 L 170.3 30.6 Q 170.5 29 172 29 L 180 29 Q 181.5 29 181.7 30.6 L 185 50 Z" fill="url(#dgear)" transform="rotate(1 176 78)"></path><path d="M 167 50 L 170.3 30.6 Q 170.5 29 172 29 L 180 29 Q 181.5 29 181.7 30.6 L 185 50 Z" fill="url(#dgear)" transform="rotate(46 176 78)"></path><path d="M 167 50 L 170.3 30.6 Q 170.5 29 172 29 L 180 29 Q 181.5 29 181.7 30.6 L 185 50 Z" fill="url(#dgear)" transform="rotate(91 176 78)"></path><path d="M 167 50 L 170.3 30.6 Q 170.5 29 172 29 L 180 29 Q 181.5 29 181.7 30.6 L 185 50 Z" fill="url(#dgear)" transform="rotate(136 176 78)"></path><path d="M 167 50 L 170.3 30.6 Q 170.5 29 172 29 L 180 29 Q 181.5 29 181.7 30.6 L 185 50 Z" fill="url(#dgear)" transform="rotate(181 176 78)"></path><path d="M 167 50 L 170.3 30.6 Q 170.5 29 172 29 L 180 29 Q 181.5 29 181.7 30.6 L 185 50 Z" fill="url(#dgear)" transform="rotate(226 176 78)"></path><path d="M 167 50 L 170.3 30.6 Q 170.5 29 172 29 L 180 29 Q 181.5 29 181.7 30.6 L 185 50 Z" fill="url(#dgear)" transform="rotate(271 176 78)"></path><path d="M 167 50 L 170.3 30.6 Q 170.5 29 172 29 L 180 29 Q 181.5 29 181.7 30.6 L 185 50 Z" fill="url(#dgear)" transform="rotate(316 176 78)"></path></g>
<circle cx="176" cy="78" r="27" fill="none" stroke="url(#dgear)" stroke-width="15"></circle>
</g>
<g mask="url(#dcut)">
<ellipse cx="105" cy="70" rx="52" ry="15" fill="url(#ddb)"></ellipse>
<path d="M 53 78 A 52 15 0 0 0 157 78 L 157 106 A 52 15 0 0 1 53 106 Z" fill="url(#ddb)"></path>
<path d="M 53 112 A 52 15 0 0 0 157 112 L 157 140 A 52 15 0 0 1 53 140 Z" fill="url(#ddb)"></path>
<path d="M 53 146 A 52 15 0 0 0 157 146 L 157 174 A 52 15 0 0 1 53 174 Z" fill="url(#ddb)"></path>
</g>
<path d="M 170 112 C 185 120 200 124 212 126 L 212 160 C 212 192 194 210 170 220 C 146 210 128 192 128 160 L 128 126 C 140 124 155 120 170 112 Z" fill="#FFFFFF" stroke="#FFFFFF" stroke-width="14" stroke-linejoin="round"></path>
<path d="M 170 112 C 185 120 200 124 212 126 L 212 160 C 212 192 194 210 170 220 C 146 210 128 192 128 160 L 128 126 C 140 124 155 120 170 112 Z" fill="url(#dsh)"></path>
<polyline points="150,166 165,181 192,146" fill="none" stroke="#FFFFFF" stroke-width="12" stroke-linecap="round" stroke-linejoin="round"></polyline></svg><g><path fill="#E6F2FA" d="M107.4 32.6L118.3 32.6Q124.2 32.6 127.2 35.2Q130.2 37.8 130.2 42.6L130.2 42.6Q130.2 44.7 129.6 46.7Q129.0 48.7 127.6 50.2Q126.2 51.8 123.9 52.7Q121.6 53.6 118.3 53.6L118.3 53.6L115.9 53.6L115.9 64L107.4 64L107.4 32.6ZM118.1 39.4L118.1 39.4L115.9 39.4L115.9 46.7L117.6 46.7Q118.7 46.7 119.6 46.3Q120.5 45.9 121.1 45.1Q121.7 44.2 121.7 42.8L121.7 42.8Q121.7 41.3 120.8 40.4Q119.9 39.4 118.1 39.4ZM157.0 64L148.9 64L142.5 41.4L142.3 41.4Q142.3 42.3 142.4 43.8Q142.5 45.3 142.6 47.0Q142.7 48.7 142.7 50.4L142.7 50.4L142.7 64L135.2 64L135.2 32.6L146.5 32.6L153.0 54.9L153.2 54.9L159.6 32.6L171.0 32.6L171.0 64L163.2 64L163.2 50.2Q163.2 48.7 163.2 47.0Q163.3 45.3 163.4 43.8Q163.4 42.3 163.5 41.4L163.5 41.4L163.3 41.4L157.0 64Z"></path><path fill="#5B9BE8" d="M215.8 47.6L215.8 47.6Q215.8 53.1 213.8 56.7Q211.7 60.4 208.0 62.2Q204.3 64 199.3 64L199.3 64L189.2 64L189.2 32.6L200.0 32.6Q205.1 32.6 208.6 34.3Q212.2 36.1 214.0 39.4Q215.8 42.8 215.8 47.6ZM207.0 47.9L207.0 47.9Q207.0 45.1 206.3 43.2Q205.5 41.3 204.0 40.4Q202.4 39.4 200.1 39.4L200.1 39.4L197.7 39.4L197.7 57.0L199.5 57.0Q203.4 57.0 205.2 54.8Q207.0 52.5 207.0 47.9ZM232.8 39.2L232.8 39.2Q237.5 39.2 240.1 41.5Q242.7 43.8 242.7 48.0L242.7 48.0L242.7 64L236.8 64L235.2 60.8L235.1 60.8Q234.0 62.1 232.9 62.9Q231.9 63.7 230.5 64.1Q229.1 64.4 227.0 64.4L227.0 64.4Q224.9 64.4 223.3 63.6Q221.6 62.7 220.6 61.0Q219.7 59.2 219.7 56.6L219.7 56.6Q219.7 52.7 222.4 50.8Q225.1 48.9 230.2 48.6L230.2 48.6L234.3 48.5L234.3 48.2Q234.3 46.5 233.5 45.8Q232.6 45.2 231.3 45.2L231.3 45.2Q229.9 45.2 228.1 45.7Q226.3 46.2 224.5 47.0L224.5 47.0L222.1 41.4Q224.2 40.3 226.9 39.8Q229.5 39.2 232.8 39.2ZM234.3 55.0L234.3 53.1L232.4 53.2Q230.0 53.3 229.1 54.0Q228.2 54.7 228.2 56.1L228.2 56.1Q228.2 57.3 228.8 57.9Q229.5 58.5 230.6 58.5L230.6 58.5Q232.1 58.5 233.2 57.5Q234.3 56.6 234.3 55.0L234.3 55.0ZM260.3 57.8L260.3 57.8Q261.4 57.8 262.4 57.6Q263.3 57.3 264.4 57.0L264.4 57.0L264.4 63.1Q263.0 63.7 261.4 64.1Q259.9 64.4 257.5 64.4L257.5 64.4Q255.2 64.4 253.4 63.7Q251.6 62.9 250.6 61.1Q249.6 59.3 249.6 56.0L249.6 56.0L249.6 46.0L246.6 46.0L246.6 42.5L250.4 39.9L252.5 34.8L258.0 34.8L258.0 39.7L264.0 39.7L264.0 46.0L258.0 46.0L258.0 55.4Q258.0 56.6 258.6 57.2Q259.2 57.8 260.3 57.8ZM280.5 39.2L280.5 39.2Q285.1 39.2 287.7 41.5Q290.3 43.8 290.3 48.0L290.3 48.0L290.3 64L284.5 64L282.9 60.8L282.7 60.8Q281.7 62.1 280.6 62.9Q279.5 63.7 278.1 64.1Q276.7 64.4 274.7 64.4L274.7 64.4Q272.6 64.4 270.9 63.6Q269.2 62.7 268.3 61.0Q267.3 59.2 267.3 56.6L267.3 56.6Q267.3 52.7 270.0 50.8Q272.7 48.9 277.9 48.6L277.9 48.6L281.9 48.5L281.9 48.2Q281.9 46.5 281.1 45.8Q280.3 45.2 278.9 45.2L278.9 45.2Q277.5 45.2 275.7 45.7Q274.0 46.2 272.2 47.0L272.2 47.0L269.8 41.4Q271.9 40.3 274.5 39.8Q277.2 39.2 280.5 39.2ZM282.0 55.0L282.0 53.1L280.0 53.2Q277.7 53.3 276.8 54.0Q275.8 54.7 275.8 56.1L275.8 56.1Q275.8 57.3 276.5 57.9Q277.2 58.5 278.3 58.5L278.3 58.5Q279.8 58.5 280.9 57.5Q282.0 56.6 282.0 55.0L282.0 55.0Z"></path><path fill="#2BC0AE" d="M310.5 39.1L310.5 39.1Q309.0 39.1 307.8 39.7Q306.6 40.4 305.8 41.6Q305.0 42.8 304.5 44.5Q304.1 46.2 304.1 48.4L304.1 48.4Q304.1 51.4 304.8 53.4Q305.6 55.4 307.1 56.5Q308.7 57.5 311.0 57.5L311.0 57.5Q313.1 57.5 315.0 56.9Q317.0 56.3 319.0 55.5L319.0 55.5L319.0 62.7Q316.9 63.6 314.7 64.0Q312.5 64.4 310.1 64.4L310.1 64.4Q304.9 64.4 301.7 62.4Q298.4 60.4 296.9 56.8Q295.4 53.2 295.4 48.4L295.4 48.4Q295.4 44.8 296.4 41.8Q297.4 38.9 299.3 36.7Q301.2 34.5 304.1 33.3Q306.9 32.1 310.6 32.1L310.6 32.1Q312.9 32.1 315.4 32.7Q317.9 33.2 320.3 34.4L320.3 34.4L317.7 41.0Q316.0 40.2 314.2 39.7Q312.5 39.1 310.5 39.1ZM336.5 39.2L336.5 39.2Q341.1 39.2 343.7 41.5Q346.3 43.8 346.3 48.0L346.3 48.0L346.3 64L340.5 64L338.8 60.8L338.7 60.8Q337.6 62.1 336.6 62.9Q335.5 63.7 334.1 64.1Q332.7 64.4 330.7 64.4L330.7 64.4Q328.6 64.4 326.9 63.6Q325.2 62.7 324.2 61.0Q323.3 59.2 323.3 56.6L323.3 56.6Q323.3 52.7 326.0 50.8Q328.7 48.9 333.8 48.6L333.8 48.6L337.9 48.5L337.9 48.2Q337.9 46.5 337.1 45.8Q336.3 45.2 334.9 45.2L334.9 45.2Q333.5 45.2 331.7 45.7Q329.9 46.2 328.1 47.0L328.1 47.0L325.7 41.4Q327.8 40.3 330.5 39.8Q333.2 39.2 336.5 39.2ZM337.9 55.0L337.9 53.1L336.0 53.2Q333.7 53.3 332.7 54.0Q331.8 54.7 331.8 56.1L331.8 56.1Q331.8 57.3 332.5 57.9Q333.1 58.5 334.2 58.5L334.2 58.5Q335.8 58.5 336.8 57.5Q337.9 56.6 337.9 55.0L337.9 55.0ZM366.7 39.2L366.7 39.2Q367.4 39.2 368.1 39.3Q368.9 39.4 369.2 39.5L369.2 39.5L368.5 47.4Q368.1 47.3 367.4 47.2Q366.8 47.2 365.6 47.2L365.6 47.2Q364.8 47.2 363.9 47.3Q363.0 47.5 362.2 47.9Q361.4 48.4 360.9 49.4Q360.4 50.4 360.4 52.0L360.4 52.0L360.4 64L352.0 64L352.0 39.7L358.2 39.7L359.6 43.5L360.0 43.5Q360.6 42.3 361.7 41.4Q362.7 40.4 364.0 39.8Q365.3 39.2 366.7 39.2ZM383.6 39.2L383.6 39.2Q387.1 39.2 389.7 40.5Q392.3 41.7 393.7 44.2Q395.1 46.6 395.1 50.4L395.1 50.4L395.1 54.1L380.1 54.1Q380.2 56.0 381.5 57.2Q382.8 58.5 385.4 58.5L385.4 58.5Q387.7 58.5 389.6 58.0Q391.5 57.6 393.5 56.6L393.5 56.6L393.5 62.6Q391.7 63.6 389.7 64Q387.6 64.4 384.4 64.4L384.4 64.4Q380.7 64.4 377.8 63.1Q374.9 61.8 373.3 59.1Q371.6 56.3 371.6 52.0L371.6 52.0Q371.6 47.6 373.1 44.8Q374.6 42.0 377.3 40.6Q380.0 39.2 383.6 39.2ZM383.9 44.9L383.9 44.9Q382.4 44.9 381.4 45.9Q380.4 46.8 380.2 48.8L380.2 48.8L387.5 48.8Q387.4 47.7 387.0 46.9Q386.6 46.0 385.8 45.5Q385.1 44.9 383.9 44.9Z"></path></g>
</svg>