<svg xmlns="http://www.w3.org/2000/svg" viewBox="0 0 800 212" role="img" aria-label="PM DataCare">
<svg x="10" y="16" width="180" height="180" viewBox="0 0 240 240"><defs>
<linearGradient id="zdb" x1="0" y1="0" x2="0" y2="1"><stop offset="0" stop-color="#2E8FE0"></stop><stop offset="1" stop-color="#1450B4"></stop></linearGradient>
<linearGradient id="zgear" x1="0" y1="0" x2="1" y2="1"><stop offset="0" stop-color="#38A9E0"></stop><stop offset="1" stop-color="#1E63D6"></stop></linearGradient>
<linearGradient id="zsh" x1="0" y1="0" x2="0" y2="1"><stop offset="0" stop-color="#3ECFDC"></stop><stop offset="1" stop-color="#00A79D"></stop></linearGradient>
<mask id="zcut"><rect width="240" height="240" fill="white"></rect><path d="M 170 112 C 185 120 200 124 212 126 L 212 160 C 212 192 194 210 170 220 C 146 210 128 192 128 160 L 128 126 C 140 124 155 120 170 112 Z" fill="black" stroke="black" stroke-width="14" stroke-linejoin="round"></path></mask>
<mask id="zgcut"><rect width="240" height="240" fill="white"></rect><ellipse cx="105" cy="70" rx="58" ry="21" fill="black"></ellipse><rect x="49" y="70" width="116" height="112" fill="black"></rect><path d="M 170 112 C 185 120 200 124 212 126 L 212 160 C 212 192 194 210 170 220 C 146 210 128 192 128 160 L 128 126 C 140 124 155 120 170 112 Z" fill="black" stroke="black" stroke-width="18" stroke-linejoin="round"></path></mask>
<mask id="zocut"><rect width="240" height="240" fill="white"></rect><path d="M 170 112 C 185 120 200 124 212 126 L 212 160 C 212 192 194 210 170 220 C 146 210 128 192 128 160 L 128 126 C 140 124 155 120 170 112 Z" fill="black" stroke="black" stroke-width="18" stroke-linejoin="round"></path></mask>
</defs>
<g mask="url(#zocut)"><circle cx="115" cy="125" r="100" fill="none" stroke="#2879CE" stroke-width="6" stroke-dasharray="366 400" transform="rotate(55 115 125)"></circle></g>
<circle cx="15" cy="125" r="11" fill="#2879CE"></circle>
<circle cx="98" cy="223" r="9" fill="#2879CE"></circle>
<circle cx="107" cy="25" r="8" fill="#38A9E0"></circle>
<g mask="url(#zgcut)">
<g><rect x="169.5" y="28" width="13" height="13" rx="2" fill="url(#zgear)" transform="rotate(11 176 69)"></rect><rect x="169.5" y="28" width="13" height="13" rx="2" fill="url(#zgear)" transform="rotate(56 176 69)"></rect><rect x="169.5" y="28" width="13" height="13" rx="2" fill="url(#zgear)" transform="rotate(101 176 69)"></rect><rect x="169.5" y="28" width="13" height="13" rx="2" fill="url(#zgear)" transform="rotate(146 176 69)"></rect><rect x="169.5" y="28" width="13" height="13" rx="2" fill="url(#zgear)" transform="rotate(191 176 69)"></rect><rect x="169.5" y="28" width="13" height="13" rx="2" fill="url(#zgear)" transform="rotate(236 176 69)"></rect><rect x="169.5" y="28" width="13" height="13" rx="2" fill="url(#zgear)" transform="rotate(281 176 69)"></rect><rect x="169.5" y="28" width="13" height="13" rx="2" fill="url(#zgear)" transform="rotate(326 176 69)"></rect></g>
<circle cx="176" cy="69" r="27" fill="none" stroke="url(#zgear)" stroke-width="12"></circle>
</g>
<g mask="url(#zcut)">
<ellipse cx="105" cy="70" rx="52" ry="15" fill="url(#zdb)"></ellipse>
<path d="M 53 78 A 52 15 0 0 0 157 78 L 157 106 A 52 15 0 0 1 53 106 Z" fill="url(#zdb)"></path>
<path d="M 53 112 A 52 15 0 0 0 157 112 L 157 140 A 52 15 0 0 1 53 140 Z" fill="url(#zdb)"></path>
<path d="M 53 146 A 52 15 0 0 0 157 146 L 157 174 A 52 15 0 0 1 53 174 Z" fill="url(#zdb)"></path>
</g>
<path d="M 170 112 C 185 120 200 124 212 126 L 212 160 C 212 192 194 210 170 220 C 146 210 128 192 128 160 L 128 126 C 140 124 155 120 170 112 Z" fill="#FFFFFF" stroke="#FFFFFF" stroke-width="14" stroke-linejoin="round"></path>
<path d="M 170 112 C 185 120 200 124 212 126 L 212 160 C 212 192 194 210 170 220 C 146 210 128 192 128 160 L 128 126 C 140 124 155 120 170 112 Z" fill="url(#zsh)"></path>
<polyline points="150,166 165,181 192,146" fill="none" stroke="#FFFFFF" stroke-width="12" stroke-linecap="round" stroke-linejoin="round"></polyline></svg><g><path fill="#E6F2FA" d="M235.6 78.6L253.3 78.6Q263.1 78.6 268.0 82.9Q272.9 87.1 272.9 94.9L272.9 94.9Q272.9 98.5 271.9 101.7Q270.9 104.9 268.6 107.5Q266.3 110.0 262.6 111.5Q258.8 112.9 253.3 112.9L253.3 112.9L249.4 112.9L249.4 130L235.6 130L235.6 78.6ZM253.0 89.8L253.0 89.8L249.4 89.8L249.4 101.6L252.2 101.6Q254.0 101.6 255.5 101.0Q257.1 100.4 258.0 99.0Q258.9 97.6 258.9 95.3L258.9 95.3Q258.9 92.9 257.5 91.3Q256.1 89.8 253.0 89.8ZM316.7 130L303.4 130L292.9 93.0L292.6 93.0Q292.8 94.4 292.9 96.9Q293.1 99.3 293.2 102.2Q293.4 105.0 293.4 107.7L293.4 107.7L293.4 130L281.0 130L281.0 78.6L299.5 78.6L310.3 115.1L310.5 115.1L321.1 78.6L339.6 78.6L339.6 130L326.8 130L326.8 107.5Q326.8 105.0 326.9 102.2Q327.0 99.4 327.1 97.0Q327.2 94.5 327.3 93.1L327.3 93.1L327.0 93.1L316.7 130Z"></path><path fill="#5B9BE8" d="M413.0 103.2L413.0 103.2Q413.0 112.2 409.6 118.1Q406.3 124.1 400.2 127.0Q394.2 130 386.0 130L386.0 130L369.4 130L369.4 78.6L387.1 78.6Q395.4 78.6 401.2 81.4Q407.0 84.3 410.0 89.8Q413.0 95.3 413.0 103.2ZM398.6 103.7L398.6 103.7Q398.6 99.0 397.3 96.0Q396.1 92.9 393.6 91.3Q391.1 89.8 387.3 89.8L387.3 89.8L383.2 89.8L383.2 118.6L386.3 118.6Q392.7 118.6 395.6 114.9Q398.6 111.3 398.6 103.7ZM440.8 89.5L440.8 89.5Q448.4 89.5 452.6 93.2Q456.9 97.0 456.9 103.9L456.9 103.9L456.9 130L447.4 130L444.7 124.7L444.5 124.7Q442.8 126.8 441.0 128.2Q439.2 129.5 436.9 130.1Q434.6 130.7 431.3 130.7L431.3 130.7Q427.9 130.7 425.2 129.3Q422.4 127.9 420.8 125.0Q419.2 122.2 419.2 117.8L419.2 117.8Q419.2 111.4 423.7 108.3Q428.1 105.3 436.5 104.9L436.5 104.9L443.2 104.7L443.2 104.1Q443.2 101.4 441.8 100.3Q440.5 99.2 438.3 99.2L438.3 99.2Q435.9 99.2 433.0 100.0Q430.1 100.8 427.2 102.1L427.2 102.1L423.3 93.1Q426.7 91.3 431.1 90.4Q435.4 89.5 440.8 89.5ZM443.2 115.3L443.2 112.2L440.1 112.4Q436.3 112.5 434.7 113.7Q433.2 114.8 433.2 117.0L433.2 117.0Q433.2 119.1 434.3 120.0Q435.4 121 437.2 121L437.2 121Q439.7 121 441.4 119.4Q443.2 117.8 443.2 115.3L443.2 115.3ZM485.8 119.8L485.8 119.8Q487.6 119.8 489.2 119.5Q490.7 119.1 492.4 118.5L492.4 118.5L492.4 128.5Q490.2 129.5 487.6 130.1Q485.1 130.7 481.2 130.7L481.2 130.7Q477.4 130.7 474.4 129.5Q471.5 128.3 469.8 125.3Q468.2 122.3 468.2 116.9L468.2 116.9L468.2 100.5L463.4 100.5L463.4 94.9L469.5 90.6L473.0 82.2L482.0 82.2L482.0 90.2L491.8 90.2L491.8 100.5L482.0 100.5L482.0 116.0Q482.0 117.9 483.0 118.9Q484.0 119.8 485.8 119.8ZM518.8 89.5L518.8 89.5Q526.4 89.5 530.6 93.2Q534.9 97.0 534.9 103.9L534.9 103.9L534.9 130L525.3 130L522.7 124.7L522.4 124.7Q520.7 126.8 519.0 128.2Q517.2 129.5 514.9 130.1Q512.6 130.7 509.3 130.7L509.3 130.7Q505.9 130.7 503.1 129.3Q500.4 127.9 498.8 125.0Q497.2 122.2 497.2 117.8L497.2 117.8Q497.2 111.4 501.7 108.3Q506.1 105.3 514.5 104.9L514.5 104.9L521.1 104.7L521.1 104.1Q521.1 101.4 519.8 100.3Q518.5 99.2 516.3 99.2L516.3 99.2Q513.9 99.2 511.0 100.0Q508.1 100.8 505.2 102.1L505.2 102.1L501.2 93.1Q504.7 91.3 509.0 90.4Q513.4 89.5 518.8 89.5ZM521.2 115.3L521.2 112.2L518.0 112.4Q514.2 112.5 512.7 113.7Q511.2 114.8 511.2 117.0L511.2 117.0Q511.2 119.1 512.3 120.0Q513.4 121 515.2 121L515.2 121Q517.6 121 519.4 119.4Q521.2 117.8 521.2 115.3L521.2 115.3Z"></path><path fill="#2BC0AE" d="M567.9 89.3L567.9 89.3Q565.5 89.3 563.5 90.3Q561.6 91.3 560.2 93.3Q558.9 95.3 558.1 98.1Q557.4 100.9 557.4 104.5L557.4 104.5Q557.4 109.4 558.6 112.7Q559.9 116.0 562.4 117.7Q564.9 119.3 568.7 119.3L568.7 119.3Q572.1 119.3 575.3 118.4Q578.5 117.4 581.7 116.1L581.7 116.1L581.7 127.9Q578.3 129.4 574.8 130.0Q571.2 130.7 567.2 130.7L567.2 130.7Q558.8 130.7 553.5 127.4Q548.2 124.1 545.7 118.2Q543.1 112.2 543.1 104.4L543.1 104.4Q543.1 98.6 544.8 93.8Q546.4 88.9 549.6 85.3Q552.7 81.8 557.4 79.8Q562.1 77.9 568.1 77.9L568.1 77.9Q571.8 77.9 575.9 78.7Q580.1 79.6 584.0 81.5L584.0 81.5L579.7 92.4Q576.9 91.1 574.0 90.2Q571.2 89.3 567.9 89.3ZM610.4 89.5L610.4 89.5Q617.9 89.5 622.2 93.2Q626.5 97.0 626.5 103.9L626.5 103.9L626.5 130L616.9 130L614.3 124.7L614.0 124.7Q612.3 126.8 610.5 128.2Q608.8 129.5 606.5 130.1Q604.2 130.7 600.9 130.7L600.9 130.7Q597.5 130.7 594.7 129.3Q592.0 127.9 590.4 125.0Q588.8 122.2 588.8 117.8L588.8 117.8Q588.8 111.4 593.2 108.3Q597.7 105.3 606.1 104.9L606.1 104.9L612.7 104.7L612.7 104.1Q612.7 101.4 611.4 100.3Q610.1 99.2 607.9 99.2L607.9 99.2Q605.5 99.2 602.6 100.0Q599.7 100.8 596.8 102.1L596.8 102.1L592.8 93.1Q596.3 91.3 600.6 90.4Q605.0 89.5 610.4 89.5ZM612.8 115.3L612.8 112.2L609.6 112.4Q605.8 112.5 604.3 113.7Q602.8 114.8 602.8 117.0L602.8 117.0Q602.8 119.1 603.9 120.0Q604.9 121 606.7 121L606.7 121Q609.2 121 611.0 119.4Q612.8 117.8 612.8 115.3L612.8 115.3ZM659.9 89.5L659.9 89.5Q661.0 89.5 662.2 89.6Q663.4 89.8 664.0 89.9L664.0 89.9L662.8 102.9Q662.1 102.7 661.1 102.6Q660.0 102.4 658.1 102.4L658.1 102.4Q656.8 102.4 655.4 102.7Q653.9 102.9 652.6 103.7Q651.2 104.5 650.4 106.1Q649.6 107.7 649.6 110.4L649.6 110.4L649.6 130L635.8 130L635.8 90.2L646.0 90.2L648.2 96.5L648.9 96.5Q649.9 94.6 651.6 93.0Q653.4 91.4 655.5 90.4Q657.6 89.5 659.9 89.5ZM687.5 89.5L687.5 89.5Q693.3 89.5 697.5 91.5Q701.8 93.5 704.0 97.6Q706.3 101.6 706.3 107.7L706.3 107.7L706.3 113.8L681.8 113.8Q681.9 116.9 684.1 118.9Q686.3 120.9 690.5 120.9L690.5 120.9Q694.2 120.9 697.3 120.2Q700.4 119.5 703.7 117.9L703.7 117.9L703.7 127.8Q700.8 129.3 697.4 130Q694.0 130.7 688.8 130.7L688.8 130.7Q682.8 130.7 678.1 128.6Q673.3 126.4 670.6 121.9Q667.9 117.4 667.9 110.3L667.9 110.3Q667.9 103.2 670.3 98.6Q672.8 93.9 677.2 91.7Q681.7 89.5 687.5 89.5ZM688.0 98.8L688.0 98.8Q685.6 98.8 684.0 100.3Q682.3 101.9 682.0 105.1L682.0 105.1L693.9 105.1Q693.8 103.4 693.1 101.9Q692.5 100.5 691.2 99.7Q689.9 98.8 688.0 98.8Z"></path></g><path fill="#84A0B5" d="M247.5 176.9L247.5 176.9Q247.5 178.6 246.7 179.8Q245.8 181.0 244.3 181.6Q242.8 182.3 240.7 182.3L240.7 182.3Q239.6 182.3 238.6 182.2Q237.6 182.1 236.8 181.9Q236.0 181.7 235.4 181.4L235.4 181.4L235.4 179.2Q236.4 179.6 237.8 180.0Q239.2 180.3 240.8 180.3L240.8 180.3Q242.2 180.3 243.2 179.9Q244.2 179.5 244.8 178.8Q245.3 178.1 245.3 177.1L245.3 177.1Q245.3 176.1 244.8 175.4Q244.4 174.7 243.4 174.2Q242.4 173.6 240.6 173.0L240.6 173.0Q239.4 172.6 238.5 172.1Q237.5 171.5 236.9 170.9Q236.3 170.2 236.0 169.4Q235.6 168.5 235.6 167.4L235.6 167.4Q235.6 165.8 236.4 164.7Q237.2 163.6 238.6 163.0Q240.0 162.4 241.8 162.4L241.8 162.4Q243.3 162.4 244.6 162.7Q246.0 163.0 247.1 163.5L247.1 163.5L246.4 165.4Q245.3 165.0 244.1 164.7Q243.0 164.4 241.7 164.4L241.7 164.4Q240.5 164.4 239.6 164.8Q238.8 165.2 238.4 165.8Q237.9 166.5 237.9 167.4L237.9 167.4Q237.9 168.4 238.3 169.1Q238.8 169.7 239.7 170.3Q240.6 170.8 242.2 171.3L242.2 171.3Q243.9 172.0 245.1 172.7Q246.3 173.4 246.9 174.3Q247.5 175.3 247.5 176.9ZM255.8 180.5L255.8 180.5Q256.3 180.5 256.9 180.4Q257.5 180.3 257.8 180.2L257.8 180.2L257.8 181.9Q257.4 182.0 256.7 182.1Q256.1 182.3 255.4 182.3L255.4 182.3Q254.3 182.3 253.3 181.9Q252.4 181.5 251.8 180.5Q251.3 179.5 251.3 177.8L251.3 177.8L251.3 169.3L249.2 169.3L249.2 168.2L251.3 167.3L252.2 164.2L253.5 164.2L253.5 167.6L257.7 167.6L257.7 169.3L253.5 169.3L253.5 177.8Q253.5 179.1 254.1 179.8Q254.7 180.5 255.8 180.5ZM267.3 167.3L267.3 167.3Q267.7 167.3 268.2 167.3Q268.7 167.4 269.1 167.5L269.1 167.5L268.8 169.5Q268.4 169.4 268.0 169.3Q267.6 169.3 267.2 169.3L267.2 169.3Q266.3 169.3 265.5 169.6Q264.8 170.0 264.2 170.6Q263.6 171.3 263.3 172.2Q262.9 173.1 262.9 174.2L262.9 174.2L262.9 182L260.7 182L260.7 167.6L262.6 167.6L262.8 170.2L262.9 170.2Q263.3 169.4 264.0 168.7Q264.6 168.1 265.4 167.7Q266.3 167.3 267.3 167.3ZM277.3 167.3L277.3 167.3Q279.2 167.3 280.5 168.1Q281.8 168.9 282.5 170.4Q283.2 171.9 283.2 173.8L283.2 173.8L283.2 175.2L273.2 175.2Q273.3 177.7 274.5 179.1Q275.7 180.4 278.0 180.4L278.0 180.4Q279.3 180.4 280.4 180.1Q281.4 179.9 282.6 179.4L282.6 179.4L282.6 181.3Q281.5 181.8 280.4 182.0Q279.3 182.3 277.9 182.3L277.9 182.3Q275.8 182.3 274.2 181.4Q272.7 180.6 271.8 178.9Q271.0 177.3 271.0 174.9L271.0 174.9Q271.0 172.5 271.8 170.8Q272.5 169.1 274.0 168.2Q275.4 167.3 277.3 167.3ZM277.3 169.1L277.3 169.1Q275.6 169.1 274.5 170.2Q273.5 171.4 273.3 173.4L273.3 173.4L280.9 173.4Q280.9 172.1 280.5 171.2Q280.1 170.2 279.3 169.6Q278.5 169.1 277.3 169.1ZM292.3 167.3L292.3 167.3Q294.9 167.3 296.2 168.5Q297.4 169.6 297.4 172.2L297.4 172.2L297.4 182L295.8 182L295.4 179.9L295.3 179.9Q294.7 180.7 294.0 181.2Q293.4 181.7 292.5 182.0Q291.7 182.3 290.4 182.3L290.4 182.3Q289.1 182.3 288.1 181.8Q287.0 181.3 286.5 180.4Q285.9 179.5 285.9 178.0L285.9 178.0Q285.9 175.9 287.6 174.7Q289.3 173.5 292.8 173.4L292.8 173.4L295.3 173.3L295.3 172.5Q295.3 170.6 294.5 169.8Q293.7 169.1 292.2 169.1L292.2 169.1Q291.1 169.1 290.1 169.4Q289.0 169.7 288.1 170.2L288.1 170.2L287.4 168.5Q288.4 168.0 289.7 167.7Q290.9 167.3 292.3 167.3ZM295.3 176.2L295.3 174.9L293.1 175.0Q290.4 175.1 289.3 175.9Q288.1 176.6 288.1 178.1L288.1 178.1Q288.1 179.3 288.9 179.9Q289.6 180.5 290.9 180.5L290.9 180.5Q292.8 180.5 294.0 179.4Q295.3 178.3 295.3 176.2L295.3 176.2ZM317.6 167.3L317.6 167.3Q320.0 167.3 321.2 168.5Q322.4 169.8 322.4 172.5L322.4 172.5L322.4 182L320.3 182L320.3 172.6Q320.3 170.9 319.5 170.0Q318.8 169.1 317.3 169.1L317.3 169.1Q315.2 169.1 314.2 170.3Q313.3 171.6 313.3 173.9L313.3 173.9L313.3 182L311.1 182L311.1 172.6Q311.1 171.5 310.8 170.7Q310.4 169.9 309.8 169.5Q309.1 169.1 308.1 169.1L308.1 169.1Q306.6 169.1 305.8 169.7Q304.9 170.3 304.5 171.5Q304.1 172.7 304.1 174.4L304.1 174.4L304.1 182L301.9 182L301.9 167.6L303.7 167.6L304.0 169.6L304.1 169.6Q304.6 168.8 305.2 168.3Q305.9 167.8 306.7 167.6Q307.5 167.3 308.5 167.3L308.5 167.3Q310.1 167.3 311.2 167.9Q312.3 168.5 312.8 169.8L312.8 169.8L313.0 169.8Q313.7 168.5 314.9 167.9Q316.1 167.3 317.6 167.3ZM329.1 161.5L329.1 182L326.9 182L326.9 161.5L329.1 161.5ZM333.7 167.6L335.9 167.6L335.9 182L333.7 182L333.7 167.6ZM334.9 162.1L334.9 162.1Q335.4 162.1 335.8 162.5Q336.2 162.8 336.2 163.6L336.2 163.6Q336.2 164.3 335.8 164.7Q335.4 165.0 334.9 165.0L334.9 165.0Q334.3 165.0 333.9 164.7Q333.5 164.3 333.5 163.6L333.5 163.6Q333.5 162.8 333.9 162.5Q334.3 162.1 334.9 162.1ZM347.4 167.3L347.4 167.3Q350.0 167.3 351.3 168.5Q352.6 169.8 352.6 172.6L352.6 172.6L352.6 182L350.5 182L350.5 172.7Q350.5 170.9 349.6 170.0Q348.8 169.1 347.1 169.1L347.1 169.1Q344.7 169.1 343.7 170.5Q342.8 171.8 342.8 174.4L342.8 174.4L342.8 182L340.6 182L340.6 167.6L342.3 167.6L342.7 169.6L342.8 169.6Q343.2 168.9 344.0 168.3Q344.7 167.8 345.5 167.6Q346.4 167.3 347.4 167.3ZM357.1 167.6L359.3 167.6L359.3 182L357.1 182L357.1 167.6ZM358.2 162.1L358.2 162.1Q358.8 162.1 359.2 162.5Q359.6 162.8 359.6 163.6L359.6 163.6Q359.6 164.3 359.2 164.7Q358.8 165.0 358.2 165.0L358.2 165.0Q357.7 165.0 357.3 164.7Q356.9 164.3 356.9 163.6L356.9 163.6Q356.9 162.8 357.3 162.5Q357.7 162.1 358.2 162.1ZM370.8 167.3L370.8 167.3Q373.4 167.3 374.7 168.5Q376.0 169.8 376.0 172.6L376.0 172.6L376.0 182L373.8 182L373.8 172.7Q373.8 170.9 373.0 170.0Q372.2 169.1 370.5 169.1L370.5 169.1Q368.1 169.1 367.1 170.5Q366.1 171.8 366.1 174.4L366.1 174.4L366.1 182L363.9 182L363.9 167.6L365.7 167.6L366.0 169.6L366.2 169.6Q366.6 168.9 367.3 168.3Q368.0 167.8 368.9 167.6Q369.8 167.3 370.8 167.3ZM384.5 188.5L384.5 188.5Q381.7 188.5 380.1 187.4Q378.6 186.4 378.6 184.5L378.6 184.5Q378.6 183.1 379.5 182.1Q380.3 181.2 381.9 180.9L381.9 180.9Q381.3 180.6 380.9 180.1Q380.5 179.5 380.5 178.8L380.5 178.8Q380.5 178.1 380.9 177.5Q381.4 176.9 382.3 176.3L382.3 176.3Q381.1 175.8 380.4 174.7Q379.7 173.6 379.7 172.2L379.7 172.2Q379.7 170.6 380.4 169.5Q381.0 168.4 382.2 167.8Q383.5 167.3 385.2 167.3L385.2 167.3Q385.6 167.3 386.0 167.3Q386.4 167.3 386.7 167.4Q387.1 167.4 387.4 167.5L387.4 167.5L392.3 167.5L392.3 168.9L389.6 169.3Q390.0 169.8 390.3 170.5Q390.6 171.2 390.6 172.1L390.6 172.1Q390.6 174.3 389.1 175.5Q387.6 176.8 385.1 176.8L385.1 176.8Q384.5 176.8 383.8 176.7L383.8 176.7Q383.2 177.1 382.9 177.5Q382.5 177.9 382.5 178.5L382.5 178.5Q382.5 178.9 382.8 179.2Q383.0 179.4 383.5 179.5Q384.0 179.7 384.7 179.7L384.7 179.7L387.2 179.7Q389.6 179.7 390.9 180.6Q392.1 181.6 392.1 183.5L392.1 183.5Q392.1 185.9 390.2 187.2Q388.2 188.5 384.5 188.5ZM384.6 186.8L384.6 186.8Q386.4 186.8 387.6 186.4Q388.7 186.0 389.3 185.4Q389.9 184.7 389.9 183.8L389.9 183.8Q389.9 182.9 389.5 182.4Q389.1 182 388.4 181.8Q387.6 181.7 386.5 181.7L386.5 181.7L384.0 181.7Q383.0 181.7 382.3 182Q381.6 182.3 381.2 182.9Q380.8 183.5 380.8 184.4L380.8 184.4Q380.8 185.5 381.8 186.2Q382.8 186.8 384.6 186.8ZM385.2 175.2L385.2 175.2Q386.7 175.2 387.5 174.4Q388.3 173.6 388.3 172.1L388.3 172.1Q388.3 170.5 387.5 169.7Q386.7 168.9 385.1 168.9L385.1 168.9Q383.6 168.9 382.8 169.7Q382.0 170.6 382.0 172.2L382.0 172.2Q382.0 173.6 382.8 174.4Q383.6 175.2 385.2 175.2ZM413.4 176.9L413.4 176.9Q413.4 178.6 412.5 179.8Q411.7 181.0 410.1 181.6Q408.6 182.3 406.5 182.3L406.5 182.3Q405.5 182.3 404.5 182.2Q403.5 182.1 402.7 181.9Q401.9 181.7 401.2 181.4L401.2 181.4L401.2 179.2Q402.2 179.6 403.7 180.0Q405.1 180.3 406.6 180.3L406.6 180.3Q408.1 180.3 409.1 179.9Q410.1 179.5 410.6 178.8Q411.1 178.1 411.1 177.1L411.1 177.1Q411.1 176.1 410.7 175.4Q410.3 174.7 409.3 174.2Q408.2 173.6 406.5 173.0L406.5 173.0Q405.3 172.6 404.3 172.1Q403.4 171.5 402.8 170.9Q402.1 170.2 401.8 169.4Q401.5 168.5 401.5 167.4L401.5 167.4Q401.5 165.8 402.3 164.7Q403.1 163.6 404.5 163.0Q405.8 162.4 407.7 162.4L407.7 162.4Q409.2 162.4 410.5 162.7Q411.8 163.0 412.9 163.5L412.9 163.5L412.2 165.4Q411.2 165.0 410.0 164.7Q408.8 164.4 407.6 164.4L407.6 164.4Q406.4 164.4 405.5 164.8Q404.7 165.2 404.2 165.8Q403.8 166.5 403.8 167.4L403.8 167.4Q403.8 168.4 404.2 169.1Q404.6 169.7 405.6 170.3Q406.5 170.8 408.1 171.3L408.1 171.3Q409.8 172.0 411.0 172.7Q412.1 173.4 412.8 174.3Q413.4 175.3 413.4 176.9ZM431.7 182L429.4 182L427.0 175.9L419.3 175.9L416.9 182L414.7 182L422.2 162.6L424.2 162.6L431.7 182ZM420.0 173.9L426.3 173.9L424.1 167.8Q424.0 167.6 423.8 167.0Q423.7 166.5 423.5 165.9Q423.3 165.3 423.2 165.0L423.2 165.0Q423.0 165.5 422.9 166.1Q422.7 166.6 422.6 167.0Q422.4 167.5 422.3 167.8L422.3 167.8L420.0 173.9ZM434.4 162.7L439.4 162.7Q443.1 162.7 444.9 164.2Q446.6 165.6 446.6 168.4L446.6 168.4Q446.6 169.6 446.2 170.7Q445.8 171.8 444.9 172.6Q444.0 173.5 442.5 173.9Q441.1 174.4 439.0 174.4L439.0 174.4L436.6 174.4L436.6 182L434.4 182L434.4 162.7ZM439.2 164.6L439.2 164.6L436.6 164.6L436.6 172.5L438.7 172.5Q440.6 172.5 441.8 172.1Q443.0 171.7 443.6 170.8Q444.3 169.9 444.3 168.4L444.3 168.4Q444.3 166.5 443.0 165.6Q441.8 164.6 439.2 164.6ZM457.6 162.7L462.7 162.7Q466.4 162.7 468.1 164.2Q469.8 165.6 469.8 168.4L469.8 168.4Q469.8 169.6 469.4 170.7Q469.0 171.8 468.1 172.6Q467.2 173.5 465.8 173.9Q464.3 174.4 462.2 174.4L462.2 174.4L459.9 174.4L459.9 182L457.6 182L457.6 162.7ZM462.5 164.6L462.5 164.6L459.9 164.6L459.9 172.5L462.0 172.5Q463.8 172.5 465.0 172.1Q466.3 171.7 466.9 170.8Q467.5 169.9 467.5 168.4L467.5 168.4Q467.5 166.5 466.3 165.6Q465.1 164.6 462.5 164.6ZM484.2 182L482.4 182L475.9 164.9L475.8 164.9Q475.8 165.5 475.9 166.3Q475.9 167.0 475.9 168.0Q476.0 168.9 476.0 169.8L476.0 169.8L476.0 182L473.9 182L473.9 162.7L477.2 162.7L483.3 178.8L483.4 178.8L489.6 162.7L492.9 162.7L492.9 182L490.7 182L490.7 169.7Q490.7 168.8 490.7 167.9Q490.7 167.1 490.8 166.3Q490.8 165.5 490.8 165.0L490.8 165.0L490.7 165.0L484.2 182ZM515.5 182L513.7 182L507.2 164.9L507.1 164.9Q507.1 165.5 507.2 166.3Q507.2 167.0 507.2 168.0Q507.3 168.9 507.3 169.8L507.3 169.8L507.3 182L505.2 182L505.2 162.7L508.5 162.7L514.6 178.8L514.7 178.8L520.9 162.7L524.2 162.7L524.2 182L522.0 182L522.0 169.7Q522.0 168.8 522.0 167.9Q522.0 167.1 522.1 166.3Q522.1 165.5 522.1 165.0L522.1 165.0L522.0 165.0L515.5 182ZM534.5 167.3L534.5 167.3Q537.1 167.3 538.4 168.5Q539.6 169.6 539.6 172.2L539.6 172.2L539.6 182L538.0 182L537.6 179.9L537.5 179.9Q536.9 180.7 536.2 181.2Q535.6 181.7 534.7 182.0Q533.8 182.3 532.6 182.3L532.6 182.3Q531.3 182.3 530.3 181.8Q529.2 181.3 528.6 180.4Q528.1 179.5 528.1 178.0L528.1 178.0Q528.1 175.9 529.8 174.7Q531.5 173.5 535.0 173.4L535.0 173.4L537.5 173.3L537.5 172.5Q537.5 170.6 536.7 169.8Q535.9 169.1 534.4 169.1L534.4 169.1Q533.3 169.1 532.3 169.4Q531.2 169.7 530.3 170.2L530.3 170.2L529.6 168.5Q530.6 168.0 531.9 167.7Q533.1 167.3 534.5 167.3ZM537.5 176.2L537.5 174.9L535.3 175.0Q532.6 175.1 531.4 175.9Q530.3 176.6 530.3 178.1L530.3 178.1Q530.3 179.3 531.1 179.9Q531.8 180.5 533.1 180.5L533.1 180.5Q535.0 180.5 536.2 179.4Q537.5 178.3 537.5 176.2L537.5 176.2ZM553.5 178.0L553.5 178.0Q553.5 179.4 552.8 180.4Q552.1 181.3 550.8 181.8Q549.5 182.3 547.7 182.3L547.7 182.3Q546.2 182.3 545.1 182.0Q544.0 181.8 543.2 181.4L543.2 181.4L543.2 179.3Q544.1 179.8 545.3 180.1Q546.5 180.5 547.8 180.5L547.8 180.5Q549.7 180.5 550.5 179.9Q551.4 179.3 551.4 178.2L551.4 178.2Q551.4 177.6 551.0 177.2Q550.7 176.7 549.9 176.3Q549.1 175.9 547.7 175.4L547.7 175.4Q546.3 174.8 545.3 174.3Q544.3 173.8 543.8 173.0Q543.2 172.3 543.2 171.1L543.2 171.1Q543.2 169.3 544.7 168.3Q546.2 167.3 548.6 167.3L548.6 167.3Q549.9 167.3 551.0 167.5Q552.2 167.8 553.2 168.2L553.2 168.2L552.4 170.0Q551.5 169.6 550.5 169.3Q549.5 169.1 548.4 169.1L548.4 169.1Q546.9 169.1 546.1 169.6Q545.3 170.1 545.3 171.0L545.3 171.0Q545.3 171.6 545.7 172.1Q546.1 172.5 546.9 172.9Q547.7 173.3 549.1 173.8L549.1 173.8Q550.4 174.3 551.4 174.8Q552.4 175.3 552.9 176.1Q553.5 176.9 553.5 178.0ZM561.7 180.5L561.7 180.5Q562.2 180.5 562.8 180.4Q563.3 180.3 563.7 180.2L563.7 180.2L563.7 181.9Q563.3 182.0 562.6 182.1Q562.0 182.3 561.3 182.3L561.3 182.3Q560.2 182.3 559.2 181.9Q558.3 181.5 557.7 180.5Q557.2 179.5 557.2 177.8L557.2 177.8L557.2 169.3L555.1 169.3L555.1 168.2L557.2 167.3L558.1 164.2L559.4 164.2L559.4 167.6L563.6 167.6L563.6 169.3L559.4 169.3L559.4 177.8Q559.4 179.1 560.0 179.8Q560.6 180.5 561.7 180.5ZM572.2 167.3L572.2 167.3Q574.0 167.3 575.3 168.1Q576.7 168.9 577.4 170.4Q578.1 171.9 578.1 173.8L578.1 173.8L578.1 175.2L568.1 175.2Q568.1 177.7 569.4 179.1Q570.6 180.4 572.8 180.4L572.8 180.4Q574.2 180.4 575.2 180.1Q576.3 179.9 577.4 179.4L577.4 179.4L577.4 181.3Q576.3 181.8 575.3 182.0Q574.2 182.3 572.7 182.3L572.7 182.3Q570.6 182.3 569.1 181.4Q567.5 180.6 566.7 178.9Q565.8 177.3 565.8 174.9L565.8 174.9Q565.8 172.5 566.6 170.8Q567.4 169.1 568.8 168.2Q570.2 167.3 572.2 167.3ZM572.2 169.1L572.2 169.1Q570.4 169.1 569.4 170.2Q568.3 171.4 568.1 173.4L568.1 173.4L575.8 173.4Q575.8 172.1 575.4 171.2Q575.0 170.2 574.2 169.6Q573.4 169.1 572.2 169.1ZM588.3 167.3L588.3 167.3Q588.8 167.3 589.3 167.3Q589.7 167.4 590.1 167.5L590.1 167.5L589.8 169.5Q589.5 169.4 589.0 169.3Q588.6 169.3 588.2 169.3L588.2 169.3Q587.3 169.3 586.6 169.6Q585.8 170.0 585.2 170.6Q584.6 171.3 584.3 172.2Q584.0 173.1 584.0 174.2L584.0 174.2L584.0 182L581.8 182L581.8 167.6L583.6 167.6L583.8 170.2L583.9 170.2Q584.4 169.4 585.0 168.7Q585.6 168.1 586.5 167.7Q587.3 167.3 588.3 167.3ZM615.5 172.2L615.5 172.2Q615.5 175.4 614.3 177.6Q613.1 179.8 610.8 180.9Q608.6 182 605.4 182L605.4 182L600.2 182L600.2 162.7L606.0 162.7Q608.9 162.7 611.0 163.8Q613.2 164.9 614.3 167.0Q615.5 169.1 615.5 172.2ZM613.1 172.3L613.1 172.3Q613.1 169.7 612.2 168.0Q611.4 166.3 609.7 165.5Q608.0 164.6 605.6 164.6L605.6 164.6L602.4 164.6L602.4 180.1L605.1 180.1Q609.1 180.1 611.1 178.1Q613.1 176.1 613.1 172.3ZM624.8 167.3L624.8 167.3Q627.4 167.3 628.7 168.5Q629.9 169.6 629.9 172.2L629.9 172.2L629.9 182L628.3 182L627.9 179.9L627.8 179.9Q627.2 180.7 626.5 181.2Q625.9 181.7 625.0 182.0Q624.1 182.3 622.9 182.3L622.9 182.3Q621.6 182.3 620.5 181.8Q619.5 181.3 618.9 180.4Q618.4 179.5 618.4 178.0L618.4 178.0Q618.4 175.9 620.1 174.7Q621.8 173.5 625.3 173.4L625.3 173.4L627.8 173.3L627.8 172.5Q627.8 170.6 627.0 169.8Q626.2 169.1 624.7 169.1L624.7 169.1Q623.6 169.1 622.5 169.4Q621.5 169.7 620.6 170.2L620.6 170.2L619.9 168.5Q620.9 168.0 622.2 167.7Q623.4 167.3 624.8 167.3ZM627.8 176.2L627.8 174.9L625.6 175.0Q622.9 175.1 621.7 175.9Q620.6 176.6 620.6 178.1L620.6 178.1Q620.6 179.3 621.4 179.9Q622.1 180.5 623.4 180.5L623.4 180.5Q625.3 180.5 626.5 179.4Q627.8 178.3 627.8 176.2L627.8 176.2ZM639.1 180.5L639.1 180.5Q639.6 180.5 640.2 180.4Q640.8 180.3 641.1 180.2L641.1 180.2L641.1 181.9Q640.7 182.0 640.1 182.1Q639.4 182.3 638.7 182.3L638.7 182.3Q637.6 182.3 636.7 181.9Q635.7 181.5 635.2 180.5Q634.6 179.5 634.6 177.8L634.6 177.8L634.6 169.3L632.5 169.3L632.5 168.2L634.6 167.3L635.5 164.2L636.8 164.2L636.8 167.6L641.0 167.6L641.0 169.3L636.8 169.3L636.8 177.8Q636.8 179.1 637.4 179.8Q638.1 180.5 639.1 180.5ZM649.5 167.3L649.5 167.3Q652.0 167.3 653.3 168.5Q654.5 169.6 654.5 172.2L654.5 172.2L654.5 182L652.9 182L652.5 179.9L652.4 179.9Q651.8 180.7 651.2 181.2Q650.5 181.7 649.6 182.0Q648.8 182.3 647.5 182.3L647.5 182.3Q646.2 182.3 645.2 181.8Q644.2 181.3 643.6 180.4Q643.0 179.5 643.0 178.0L643.0 178.0Q643.0 175.9 644.7 174.7Q646.4 173.5 649.9 173.4L649.9 173.4L652.4 173.3L652.4 172.5Q652.4 170.6 651.6 169.8Q650.8 169.1 649.3 169.1L649.3 169.1Q648.2 169.1 647.2 169.4Q646.1 169.7 645.2 170.2L645.2 170.2L644.6 168.5Q645.5 168.0 646.8 167.7Q648.1 167.3 649.5 167.3ZM652.4 176.2L652.4 174.9L650.2 175.0Q647.5 175.1 646.4 175.9Q645.3 176.6 645.3 178.1L645.3 178.1Q645.3 179.3 646.0 179.9Q646.8 180.5 648.0 180.5L648.0 180.5Q649.9 180.5 651.2 179.4Q652.4 178.3 652.4 176.2L652.4 176.2ZM674.6 164.4L674.6 164.4Q673.0 164.4 671.8 165.0Q670.5 165.5 669.6 166.6Q668.7 167.6 668.2 169.1Q667.8 170.5 667.8 172.3L667.8 172.3Q667.8 174.8 668.5 176.6Q669.3 178.3 670.8 179.3Q672.3 180.3 674.6 180.3L674.6 180.3Q675.9 180.3 677.0 180.1Q678.1 179.9 679.2 179.5L679.2 179.5L679.2 181.5Q678.2 181.9 677.0 182.1Q675.8 182.3 674.3 182.3L674.3 182.3Q671.3 182.3 669.3 181.0Q667.4 179.8 666.4 177.6Q665.4 175.4 665.4 172.3L665.4 172.3Q665.4 170.1 666.0 168.3Q666.6 166.5 667.8 165.2Q669.0 163.9 670.7 163.2Q672.4 162.4 674.7 162.4L674.7 162.4Q676.1 162.4 677.5 162.7Q678.8 163.0 679.9 163.6L679.9 163.6L679.0 165.5Q678.1 165.0 677.0 164.7Q675.9 164.4 674.6 164.4ZM683.1 161.5L685.3 161.5L685.3 167.6Q685.3 168.1 685.2 168.7Q685.2 169.2 685.1 169.7L685.1 169.7L685.3 169.7Q685.7 168.9 686.4 168.4Q687.1 167.9 688.0 167.6Q688.9 167.3 689.9 167.3L689.9 167.3Q691.6 167.3 692.8 167.9Q693.9 168.4 694.5 169.6Q695.1 170.7 695.1 172.6L695.1 172.6L695.1 182L693.0 182L693.0 172.7Q693.0 170.9 692.1 170.0Q691.3 169.1 689.6 169.1L689.6 169.1Q688.0 169.1 687.0 169.7Q686.1 170.4 685.7 171.5Q685.3 172.7 685.3 174.4L685.3 174.4L685.3 182L683.1 182L683.1 161.5ZM705.0 167.3L705.0 167.3Q707.6 167.3 708.9 168.5Q710.1 169.6 710.1 172.2L710.1 172.2L710.1 182L708.5 182L708.1 179.9L708.0 179.9Q707.4 180.7 706.7 181.2Q706.1 181.7 705.2 182.0Q704.4 182.3 703.1 182.3L703.1 182.3Q701.8 182.3 700.8 181.8Q699.7 181.3 699.2 180.4Q698.6 179.5 698.6 178.0L698.6 178.0Q698.6 175.9 700.3 174.7Q702.0 173.5 705.5 173.4L705.5 173.4L708.0 173.3L708.0 172.5Q708.0 170.6 707.2 169.8Q706.4 169.1 704.9 169.1L704.9 169.1Q703.8 169.1 702.8 169.4Q701.7 169.7 700.8 170.2L700.8 170.2L700.1 168.5Q701.1 168.0 702.4 167.7Q703.6 167.3 705.0 167.3ZM708.0 176.2L708.0 174.9L705.8 175.0Q703.1 175.1 702.0 175.9Q700.8 176.6 700.8 178.1L700.8 178.1Q700.8 179.3 701.6 179.9Q702.3 180.5 703.6 180.5L703.6 180.5Q705.5 180.5 706.7 179.4Q708.0 178.3 708.0 176.2L708.0 176.2ZM721.5 167.3L721.5 167.3Q724.0 167.3 725.4 168.5Q726.7 169.8 726.7 172.6L726.7 172.6L726.7 182L724.5 182L724.5 172.7Q724.5 170.9 723.7 170.0Q722.9 169.1 721.2 169.1L721.2 169.1Q718.8 169.1 717.8 170.5Q716.8 171.8 716.8 174.4L716.8 174.4L716.8 182L714.6 182L714.6 167.6L716.4 167.6L716.7 169.6L716.8 169.6Q717.3 168.9 718.0 168.3Q718.7 167.8 719.6 167.6Q720.5 167.3 721.5 167.3ZM735.2 188.5L735.2 188.5Q732.4 188.5 730.8 187.4Q729.3 186.4 729.3 184.5L729.3 184.5Q729.3 183.1 730.2 182.1Q731.0 181.2 732.6 180.9L732.6 180.9Q732.0 180.6 731.6 180.1Q731.2 179.5 731.2 178.8L731.2 178.8Q731.2 178.1 731.6 177.5Q732.1 176.9 733.0 176.3L733.0 176.3Q731.8 175.8 731.1 174.7Q730.4 173.6 730.4 172.2L730.4 172.2Q730.4 170.6 731.1 169.5Q731.7 168.4 732.9 167.8Q734.2 167.3 735.9 167.3L735.9 167.3Q736.3 167.3 736.7 167.3Q737.1 167.3 737.4 167.4Q737.8 167.4 738.0 167.5L738.0 167.5L743.0 167.5L743.0 168.9L740.3 169.3Q740.7 169.8 741.0 170.5Q741.3 171.2 741.3 172.1L741.3 172.1Q741.3 174.3 739.8 175.5Q738.3 176.8 735.8 176.8L735.8 176.8Q735.2 176.8 734.5 176.7L734.5 176.7Q733.9 177.1 733.6 177.5Q733.2 177.9 733.2 178.5L733.2 178.5Q733.2 178.9 733.5 179.2Q733.7 179.4 734.2 179.5Q734.7 179.7 735.4 179.7L735.4 179.7L737.9 179.7Q740.3 179.7 741.6 180.6Q742.8 181.6 742.8 183.5L742.8 183.5Q742.8 185.9 740.9 187.2Q738.9 188.5 735.2 188.5ZM735.3 186.8L735.3 186.8Q737.1 186.8 738.3 186.4Q739.4 186.0 740.0 185.4Q740.6 184.7 740.6 183.8L740.6 183.8Q740.6 182.9 740.2 182.4Q739.8 182 739.1 181.8Q738.3 181.7 737.2 181.7L737.2 181.7L734.7 181.7Q733.7 181.7 733.0 182Q732.3 182.3 731.9 182.9Q731.5 183.5 731.5 184.4L731.5 184.4Q731.5 185.5 732.5 186.2Q733.5 186.8 735.3 186.8ZM735.9 175.2L735.9 175.2Q737.4 175.2 738.2 174.4Q739.0 173.6 739.0 172.1L739.0 172.1Q739.0 170.5 738.2 169.7Q737.4 168.9 735.8 168.9L735.8 168.9Q734.3 168.9 733.5 169.7Q732.7 170.6 732.7 172.2L732.7 172.2Q732.7 173.6 733.5 174.4Q734.3 175.2 735.9 175.2ZM751.4 167.3L751.4 167.3Q753.3 167.3 754.6 168.1Q755.9 168.9 756.6 170.4Q757.3 171.9 757.3 173.8L757.3 173.8L757.3 175.2L747.3 175.2Q747.4 177.7 748.6 179.1Q749.8 180.4 752.0 180.4L752.0 180.4Q753.4 180.4 754.5 180.1Q755.5 179.9 756.7 179.4L756.7 179.4L756.7 181.3Q755.6 181.8 754.5 182.0Q753.4 182.3 751.9 182.3L751.9 182.3Q749.9 182.3 748.3 181.4Q746.8 180.6 745.9 178.9Q745.0 177.3 745.0 174.9L745.0 174.9Q745.0 172.5 745.8 170.8Q746.6 169.1 748.0 168.2Q749.5 167.3 751.4 167.3ZM751.4 169.1L751.4 169.1Q749.6 169.1 748.6 170.2Q747.6 171.4 747.4 173.4L747.4 173.4L755.0 173.4Q755.0 172.1 754.6 171.2Q754.2 170.2 753.4 169.6Q752.6 169.1 751.4 169.1ZM770.4 178.0L770.4 178.0Q770.4 179.4 769.7 180.4Q769.0 181.3 767.7 181.8Q766.4 182.3 764.6 182.3L764.6 182.3Q763.1 182.3 762.0 182.0Q760.9 181.8 760.1 181.4L760.1 181.4L760.1 179.3Q760.9 179.8 762.2 180.1Q763.4 180.5 764.7 180.5L764.7 180.5Q766.6 180.5 767.4 179.9Q768.2 179.3 768.2 178.2L768.2 178.2Q768.2 177.6 767.9 177.2Q767.6 176.7 766.8 176.3Q766.0 175.9 764.6 175.4L764.6 175.4Q763.2 174.8 762.2 174.3Q761.2 173.8 760.6 173.0Q760.1 172.3 760.1 171.1L760.1 171.1Q760.1 169.3 761.6 168.3Q763.1 167.3 765.5 167.3L765.5 167.3Q766.8 167.3 767.9 167.5Q769.1 167.8 770.0 168.2L770.0 168.2L769.3 170.0Q768.4 169.6 767.4 169.3Q766.4 169.1 765.3 169.1L765.3 169.1Q763.8 169.1 763.0 169.6Q762.2 170.1 762.2 171.0L762.2 171.0Q762.2 171.6 762.6 172.1Q762.9 172.5 763.8 172.9Q764.6 173.3 766.0 173.8L766.0 173.8Q767.3 174.3 768.3 174.8Q769.3 175.3 769.8 176.1Q770.4 176.9 770.4 178.0Z"></path>
</svg>