<svg xmlns="http://www.w3.org/2000/svg" viewBox="0 0 420 84" role="img" aria-label="PM DataCare">
<svg x="0" y="2" width="80" height="80" viewBox="0 0 240 240"><defs>
<linearGradient id="ddb" x1="0" y1="0" x2="0" y2="1"><stop offset="0" stop-color="#2E8FE0"></stop><stop offset="1" stop-color="#1450B4"></stop></linearGradient>
<linearGradient id="dgear" x1="0" y1="0" x2="1" y2="1"><stop offset="0" stop-color="#38A9E0"></stop><stop offset="1" stop-color="#1E63D6"></stop></linearGradient>
<linearGradient id="dsh" x1="0" y1="0" x2="0" y2="1"><stop offset="0" stop-color="#3ECFDC"></stop><stop offset="1" stop-color="#00A79D"></stop></linearGradient>
<mask id="dcut"><rect width="240" height="240" fill="white"></rect><path d="M 170 112 C 185 120 200 124 212 126 L 212 160 C 212 192 194 210 170 220 C 146 210 128 192 128 160 L 128 126 C 140 124 155 120 170 112 Z" fill="black" stroke="black" stroke-width="14" stroke-linejoin="round"></path></mask>
<mask id="dgcut"><rect width="240" height="240" fill="white"></rect><ellipse cx="105" cy="70" rx="58" ry="21" fill="black"></ellipse><rect x="49" y="70" width="116" height="112" fill="black"></rect><path d="M 170 112 C 185 120 200 124 212 126 L 212 160 C 212 192 194 210 170 220 C 146 210 128 192 128 160 L 128 126 C 140 124 155 120 170 112 Z" fill="black" stroke="black" stroke-width="18" stroke-linejoin="round"></path></mask>
<mask id="docut"><rect width="240" height="240" fill="white"></rect><circle cx="176" cy="78" r="57" fill="black"></circle><path d="M 170 112 C 185 120 200 124 212 126 L 212 160 C 212 192 194 210 170 220 C 146 210 128 192 128 160 L 128 126 C 140 124 155 120 170 112 Z" fill="black" stroke="black" stroke-width="18" stroke-linejoin="round"></path></mask>
<linearGradient id="dorb" gradientUnits="userSpaceOnUse" x1="90" y1="209" x2="17" y2="122"><stop offset="0" stop-color="#00A79D"></stop><stop offset="1" stop-color="#2879CE"></stop></linearGradient>
</defs>
<g mask="url(#docut)"><circle cx="105" cy="122" r="88" fill="none" stroke="url(#dorb)" stroke-width="11" stroke-dasharray="420 400" transform="rotate(55 105 122)"></circle></g>
<g mask="url(#dgcut)">
<g><path d="M 167 50 L 170.3 30.6 Q 170.5 29 172 29 L 180 29 Q 181.5 29 181.7 30.6 L 185 50 Z" fill="url(#dgear)" transform="rotate(1 176 78)"></path><path d="M 167 50 L 170.3 30.6 Q 170.5 29 172 29 L 180 29 Q 181.5 29 181.7 30.6 L 185 50 Z" fill="url(#dgear)" transform="rotate(46 176 78)"></path><path d="M 167 50 L 170.3 30.6 Q 170.5 29 172 29 L 180 29 Q 181.5 29 181.7 30.6 L 185 50 Z" fill="url(#dgear)" transform="rotate(91 176 78)"></path><path d="M 167 50 L 170.3 30.6 Q 170.5 29 172 29 L 180 29 Q 181.5 29 181.7 30.6 L 185 50 Z" fill="url(#dgear)" transform="rotate(136 176 78)"></path><path d="M 167 50 L 170.3 30.6 Q 170.5 29 172 29 L 180 29 Q 181.5 29 181.7 30.6 L 185 50 Z" fill="url(#dgear)" transform="rotate(181 176 78)"></path><path d="M 167 50 L 170.3 30.6 Q 170.5 29 172 29 L 180 29 Q 181.5 29 181.7 30.6 L 185 50 Z" fill="url(#dgear)" transform="rotate(226 176 78)"></path><path d="M 167 50 L 170.3 30.6 Q 170.5 29 172 29 L 180 29 Q 181.5 29 181.7 30.6 L 185 50 Z" fill="url(#dgear)" transform="rotate(271 176 78)"></path><path d="M 167 50 L 170.3 30.6 Q 170.5 29 172 29 L 180 29 Q 181.5 29 181.7 30.6 L 185 50 Z" fill="url(#dgear)" transform="rotate(316 176 78)"></path></g>
<circle cx="176" cy="78" r="27" fill="none" stroke="url(#dgear)" stroke-width="15"></circle>
</g>
<g mask="url(#dcut)">
<ellipse cx="105" cy="70" rx="52" ry="15" fill="url(#ddb)"></ellipse>
<path d="M 53 78 A 52 15 0 0 0 157 78 L 157 106 A 52 15 0 0 1 53 106 Z" fill="url(#ddb)"></path>
<path d="M 53 112 A 52 15 0 0 0 157 112 L 157 140 A 52 15 0 0 1 53 140 Z" fill="url(#ddb)"></path>
<path d="M 53 146 A 52 15 0 0 0 157 146 L 157 174 A 52 15 0 0 1 53 174 Z" fill="url(#ddb)"></path>
</g>
<path d="M 170 112 C 185 120 200 124 212 126 L 212 160 C 212 192 194 210 170 220 C 146 210 128 192 128 160 L 128 126 C 140 124 155 120 170 112 Z" fill="#FFFFFF" stroke="#FFFFFF" stroke-width="14" stroke-linejoin="round"></path>
<path d="M 170 112 C 185 120 200 124 212 126 L 212 160 C 212 192 194 210 170 220 C 146 210 128 192 128 160 L 128 126 C 140 124 155 120 170 112 Z" fill="url(#dsh)"></path>
<polyline points="150,166 165,181 192,146" fill="none" stroke="#FFFFFF" stroke-width="12" stroke-linecap="round" stroke-linejoin="round"></polyline></svg><g transform="translate(-14,-7)"><path fill="#E6F2FA" d="M111.8 64L107.8 64L107.8 35.0L117.6 35.0Q120.5 35.0 122.7 35.6Q124.9 36.3 126.4 37.6Q128.0 38.8 128.8 40.7Q129.6 42.6 129.6 45.0L129.6 45.0Q129.6 48.3 128.1 50.5Q126.6 52.8 123.7 53.9Q120.8 55.1 116.6 55.1L116.6 55.1L111.8 55.1L111.8 64ZM117.5 38.3L111.8 38.3L111.8 51.7L117.1 51.7Q121.2 51.7 123.4 50.1Q125.5 48.5 125.5 44.9L125.5 44.9Q125.5 41.6 123.5 40.0Q121.6 38.3 117.5 38.3L117.5 38.3ZM139.0 64L135.1 64L135.1 35.0L141.4 35.0L151.0 59.8L151.2 59.8L160.8 35.0L166.8 35.0L166.8 64L163.0 64L163.3 39.1L162.9 39.1L152.9 64L149.0 64L139.1 39.0L138.7 39.0L139.0 64Z"></path><path fill="#5B9BE8" d="M196.7 64L184.8 64L184.8 35.0L195.3 35.0Q200.8 35.0 204.2 36.7Q207.6 38.4 209.2 41.6Q210.8 44.8 210.8 49.2L210.8 49.2Q210.8 52.6 210.0 55.2Q209.2 57.7 207.8 59.4Q206.3 61.1 204.5 62.1Q202.7 63.1 200.7 63.6Q198.7 64 196.7 64L196.7 64ZM195.6 40.7L191.9 40.7L191.9 58.3L196.5 58.3Q198.8 58.3 200.3 57.3Q201.9 56.3 202.6 54.4Q203.4 52.5 203.4 49.6L203.4 49.6Q203.4 47.2 202.9 45.6Q202.4 43.9 201.5 42.8Q200.5 41.7 199.1 41.2Q197.6 40.7 195.6 40.7L195.6 40.7ZM221.0 64.6L221.0 64.6Q219.0 64.6 217.5 63.8Q216.0 63.1 215.2 61.6Q214.4 60.1 214.4 58.0L214.4 58.0Q214.4 56.0 215.1 54.7Q215.9 53.4 217.4 52.7Q218.8 51.9 220.9 51.4Q223.0 50.9 225.6 50.5L225.6 50.5Q226.9 50.3 227.8 50.1Q228.6 49.9 229.0 49.4Q229.5 49.0 229.5 48.2L229.5 48.2Q229.5 47.1 228.7 46.3Q227.9 45.5 226.1 45.5L226.1 45.5Q224.9 45.5 223.9 45.9Q222.9 46.4 222.2 47.2Q221.5 48.0 221.2 49.2L221.2 49.2L214.9 47.4Q215.5 45.5 216.5 44.2Q217.6 42.8 219.0 41.9Q220.5 41.0 222.3 40.6Q224.2 40.2 226.3 40.2L226.3 40.2Q229.8 40.2 232.1 41.3Q234.3 42.4 235.4 44.8Q236.4 47.1 236.4 50.8L236.4 50.8L236.4 54.4Q236.4 55.9 236.5 57.6Q236.6 59.2 236.7 60.8Q236.8 62.4 237.0 64L237.0 64L230.7 64Q230.5 63.0 230.4 61.6Q230.2 60.1 230.1 58.6L230.1 58.6L229.3 58.6Q228.7 60.3 227.5 61.7Q226.3 63.1 224.7 63.8Q223.0 64.6 221.0 64.6ZM224.2 59.6L224.2 59.6Q225.0 59.6 225.8 59.3Q226.6 59.0 227.3 58.5Q228.1 58.0 228.7 57.3Q229.3 56.5 229.6 55.6L229.6 55.6L229.5 52.9Q229.1 53.1 228.7 53.2L228.7 53.2Q227.6 53.5 226.6 53.7Q225.6 53.9 224.6 54.1Q223.6 54.3 222.8 54.6Q222.1 54.9 221.6 55.4Q221.2 55.9 221.2 56.9L221.2 56.9Q221.2 58.1 222.0 58.9Q222.8 59.6 224.2 59.6ZM250.7 64.6L250.7 64.6Q246.6 64.6 244.7 62.4Q242.8 60.2 242.8 55.4L242.8 55.4L242.8 46.3L239.5 46.3L239.6 40.8L242.0 40.8Q243.4 40.8 244.1 40.4Q244.8 40.0 245.0 38.9L245.0 38.9L245.6 35.6L249.6 35.6L249.6 40.8L255.2 40.8L255.2 46.5L249.6 46.5L249.6 55.1Q249.6 56.6 250.3 57.3Q251.0 58.0 252.5 58.0L252.5 58.0Q253.4 58.0 254.1 57.8Q254.9 57.7 255.4 57.4L255.4 57.4L255.4 63.9Q254.0 64.4 252.8 64.5Q251.6 64.6 250.7 64.6ZM265.0 64.6L265.0 64.6Q263.1 64.6 261.6 63.8Q260.1 63.1 259.2 61.6Q258.4 60.1 258.4 58.0L258.4 58.0Q258.4 56.0 259.2 54.7Q259.9 53.4 261.4 52.7Q262.9 51.9 265.0 51.4Q267.0 50.9 269.7 50.5L269.7 50.5Q270.9 50.3 271.8 50.1Q272.7 49.9 273.1 49.4Q273.5 49.0 273.5 48.2L273.5 48.2Q273.5 47.1 272.7 46.3Q271.9 45.5 270.2 45.5L270.2 45.5Q269.0 45.5 268.0 45.9Q267.0 46.4 266.3 47.2Q265.6 48.0 265.2 49.2L265.2 49.2L259.0 47.4Q259.5 45.5 260.6 44.2Q261.6 42.8 263.1 41.9Q264.5 41.0 266.4 40.6Q268.3 40.2 270.4 40.2L270.4 40.2Q273.9 40.2 276.1 41.3Q278.3 42.4 279.4 44.8Q280.5 47.1 280.5 50.8L280.5 50.8L280.5 54.4Q280.5 55.9 280.6 57.6Q280.6 59.2 280.7 60.8Q280.8 62.4 281.0 64L281.0 64L274.8 64Q274.6 63.0 274.4 61.6Q274.2 60.1 274.1 58.6L274.1 58.6L273.3 58.6Q272.7 60.3 271.5 61.7Q270.4 63.1 268.7 63.8Q267.1 64.6 265.0 64.6ZM268.2 59.6L268.2 59.6Q269 59.6 269.8 59.3Q270.6 59.0 271.4 58.5Q272.1 58.0 272.7 57.3Q273.4 56.5 273.7 55.6L273.7 55.6L273.6 52.9Q273.2 53.1 272.7 53.2L272.7 53.2Q271.7 53.5 270.7 53.7Q269.6 53.9 268.6 54.1Q267.6 54.3 266.9 54.6Q266.1 54.9 265.7 55.4Q265.2 55.9 265.2 56.9L265.2 56.9Q265.2 58.1 266.1 58.9Q266.9 59.6 268.2 59.6Z"></path><path fill="#2BC0AE" d="M299.7 64.6L299.7 64.6Q296.2 64.6 293.5 63.7Q290.8 62.8 288.9 60.9Q287.0 59.0 286.0 56.2Q285.0 53.5 285.0 49.8L285.0 49.8Q285.0 46.0 286.0 43.1Q287.0 40.3 288.9 38.3Q290.8 36.3 293.4 35.3Q296.0 34.3 299.2 34.3L299.2 34.3Q301.7 34.3 303.8 35.0Q305.9 35.6 307.4 36.8Q309.0 38.0 309.8 39.7Q310.7 41.4 310.7 43.5L310.7 43.5L304.2 45.3Q304.2 43.5 303.4 42.4Q302.6 41.3 301.4 40.7Q300.3 40.1 298.9 40.1L298.9 40.1Q297.8 40.1 296.7 40.5Q295.5 41.0 294.5 42.1Q293.6 43.1 293.0 44.9Q292.4 46.7 292.4 49.3L292.4 49.3Q292.4 52.7 293.4 54.8Q294.3 57.0 296.1 58.0Q297.8 58.9 299.8 58.9L299.8 58.9Q302.1 58.9 303.4 58.0Q304.6 57.0 305.2 55.5Q305.7 54.0 305.7 52.4L305.7 52.4L311.9 53.4Q311.9 55.8 311.2 57.8Q310.5 59.9 309.1 61.4Q307.7 62.9 305.3 63.8Q303.0 64.6 299.7 64.6ZM321.3 64.6L321.3 64.6Q319.4 64.6 317.9 63.8Q316.4 63.1 315.6 61.6Q314.7 60.1 314.7 58.0L314.7 58.0Q314.7 56.0 315.5 54.7Q316.3 53.4 317.7 52.7Q319.2 51.9 321.3 51.4Q323.3 50.9 326.0 50.5L326.0 50.5Q327.3 50.3 328.1 50.1Q329.0 49.9 329.4 49.4Q329.9 49.0 329.9 48.2L329.9 48.2Q329.9 47.1 329.1 46.3Q328.3 45.5 326.5 45.5L326.5 45.5Q325.3 45.5 324.3 45.9Q323.3 46.4 322.6 47.2Q321.9 48.0 321.5 49.2L321.5 49.2L315.3 47.4Q315.9 45.5 316.9 44.2Q317.9 42.8 319.4 41.9Q320.8 41.0 322.7 40.6Q324.6 40.2 326.7 40.2L326.7 40.2Q330.2 40.2 332.4 41.3Q334.6 42.4 335.7 44.8Q336.8 47.1 336.8 50.8L336.8 50.8L336.8 54.4Q336.8 55.9 336.9 57.6Q336.9 59.2 337.0 60.8Q337.2 62.4 337.3 64L337.3 64L331.1 64Q330.9 63.0 330.7 61.6Q330.6 60.1 330.5 58.6L330.5 58.6L329.6 58.6Q329.0 60.3 327.8 61.7Q326.7 63.1 325.0 63.8Q323.4 64.6 321.3 64.6ZM324.5 59.6L324.5 59.6Q325.3 59.6 326.1 59.3Q326.9 59.0 327.7 58.5Q328.4 58.0 329.1 57.3Q329.7 56.5 330.0 55.6L330.0 55.6L329.9 52.9Q329.5 53.1 329.0 53.2L329.0 53.2Q328.0 53.5 327.0 53.7Q325.9 53.9 324.9 54.1Q324.0 54.3 323.2 54.6Q322.4 54.9 322.0 55.4Q321.5 55.9 321.5 56.9L321.5 56.9Q321.5 58.1 322.4 58.9Q323.2 59.6 324.5 59.6ZM349.2 64L342.0 64L342.0 40.8L347.8 40.8L348.0 48.6L348.9 48.6Q349.2 45.6 350.0 43.7Q350.9 41.9 352.5 41.1Q354.1 40.2 356.5 40.2L356.5 40.2Q356.8 40.2 357.3 40.3Q357.7 40.3 358.3 40.4L358.3 40.4L358.0 47.9Q357.3 47.6 356.5 47.5Q355.7 47.4 355.1 47.4L355.1 47.4Q353.3 47.4 352.1 48.0Q350.8 48.7 350.1 50.1Q349.4 51.4 349.2 53.5L349.2 53.5L349.2 64ZM372.7 64.6L372.7 64.6Q369.8 64.6 367.5 63.8Q365.2 63.1 363.6 61.6Q362.0 60.1 361.2 57.9Q360.3 55.7 360.3 52.8L360.3 52.8Q360.3 50.1 361.2 47.7Q362.0 45.4 363.5 43.7Q365.0 42 367.2 41.1Q369.5 40.2 372.2 40.2L372.2 40.2Q375.0 40.2 377.2 41.1Q379.3 42.0 380.7 43.7Q382.1 45.5 382.7 48.0Q383.4 50.5 383.2 53.8L383.2 53.8L367.2 53.9Q367.4 56.6 368.7 57.9L368.7 57.9Q370.2 59.6 372.7 59.6L372.7 59.6Q373.9 59.6 374.6 59.2Q375.4 58.9 375.9 58.4Q376.4 57.9 376.7 57.3Q377.0 56.7 377.2 56.1L377.2 56.1L383.4 57.4Q383.0 59.0 382.2 60.3Q381.5 61.7 380.2 62.6Q378.9 63.6 377.0 64.1Q375.2 64.6 372.7 64.6ZM367.3 50.2L367.3 50.2L376.7 50.1Q376.7 49.0 376.4 48.2L376.4 48.2Q375.8 46.8 374.7 46.2Q373.6 45.6 372.3 45.6L372.3 45.6Q370.8 45.6 369.6 46.4Q368.4 47.2 367.8 48.8L367.8 48.8Q367.5 49.4 367.3 50.2Z"></path></g>
</svg>