<svg xmlns="http://www.w3.org/2000/svg" viewBox="0 0 240 240" role="img" aria-label="PM DataCare">
<defs>
<linearGradient id="idb" x1="0" y1="0" x2="0" y2="1"><stop offset="0" stop-color="#2E8FE0"></stop><stop offset="1" stop-color="#1450B4"></stop></linearGradient>
<linearGradient id="igear" x1="0" y1="0" x2="1" y2="1"><stop offset="0" stop-color="#38A9E0"></stop><stop offset="1" stop-color="#1E63D6"></stop></linearGradient>
<linearGradient id="ish" x1="0" y1="0" x2="0" y2="1"><stop offset="0" stop-color="#3ECFDC"></stop><stop offset="1" stop-color="#00A79D"></stop></linearGradient>
<mask id="icut"><rect width="240" height="240" fill="white"></rect><path d="M 170 112 C 185 120 200 124 212 126 L 212 160 C 212 192 194 210 170 220 C 146 210 128 192 128 160 L 128 126 C 140 124 155 120 170 112 Z" fill="black" stroke="black" stroke-width="14" stroke-linejoin="round"></path></mask>
<mask id="igcut"><rect width="240" height="240" fill="white"></rect><ellipse cx="105" cy="70" rx="58" ry="21" fill="black"></ellipse><rect x="49" y="70" width="116" height="112" fill="black"></rect><path d="M 170 112 C 185 120 200 124 212 126 L 212 160 C 212 192 194 210 170 220 C 146 210 128 192 128 160 L 128 126 C 140 124 155 120 170 112 Z" fill="black" stroke="black" stroke-width="18" stroke-linejoin="round"></path></mask>
<mask id="iocut"><rect width="240" height="240" fill="white"></rect><path d="M 170 112 C 185 120 200 124 212 126 L 212 160 C 212 192 194 210 170 220 C 146 210 128 192 128 160 L 128 126 C 140 124 155 120 170 112 Z" fill="black" stroke="black" stroke-width="18" stroke-linejoin="round"></path></mask>
</defs>
<g mask="url(#iocut)"><circle cx="115" cy="125" r="100" fill="none" stroke="#2879CE" stroke-width="6" stroke-dasharray="366 400" transform="rotate(55 115 125)"></circle></g>
<circle cx="15" cy="125" r="11" fill="#2879CE"></circle>
<circle cx="98" cy="223" r="9" fill="#2879CE"></circle>
<circle cx="107" cy="25" r="8" fill="#38A9E0"></circle>
<g mask="url(#igcut)">
<g><rect x="169.5" y="28" width="13" height="13" rx="2" fill="url(#igear)" transform="rotate(11 176 69)"></rect><rect x="169.5" y="28" width="13" height="13" rx="2" fill="url(#igear)" transform="rotate(56 176 69)"></rect><rect x="169.5" y="28" width="13" height="13" rx="2" fill="url(#igear)" transform="rotate(101 176 69)"></rect><rect x="169.5" y="28" width="13" height="13" rx="2" fill="url(#igear)" transform="rotate(146 176 69)"></rect><rect x="169.5" y="28" width="13" height="13" rx="2" fill="url(#igear)" transform="rotate(191 176 69)"></rect><rect x="169.5" y="28" width="13" height="13" rx="2" fill="url(#igear)" transform="rotate(236 176 69)"></rect><rect x="169.5" y="28" width="13" height="13" rx="2" fill="url(#igear)" transform="rotate(281 176 69)"></rect><rect x="169.5" y="28" width="13" height="13" rx="2" fill="url(#igear)" transform="rotate(326 176 69)"></rect></g>
<circle cx="176" cy="69" r="27" fill="none" stroke="url(#igear)" stroke-width="12"></circle>
</g>
<g mask="url(#icut)">
<ellipse cx="105" cy="70" rx="52" ry="15" fill="url(#idb)"></ellipse>
<path d="M 53 78 A 52 15 0 0 0 157 78 L 157 106 A 52 15 0 0 1 53 106 Z" fill="url(#idb)"></path>
<path d="M 53 112 A 52 15 0 0 0 157 112 L 157 140 A 52 15 0 0 1 53 140 Z" fill="url(#idb)"></path>
<path d="M 53 146 A 52 15 0 0 0 157 146 L 157 174 A 52 15 0 0 1 53 174 Z" fill="url(#idb)"></path>
</g>
<path d="M 170 112 C 185 120 200 124 212 126 L 212 160 C 212 192 194 210 170 220 C 146 210 128 192 128 160 L 128 126 C 140 124 155 120 170 112 Z" fill="#FFFFFF" stroke="#FFFFFF" stroke-width="14" stroke-linejoin="round"></path>
<path d="M 170 112 C 185 120 200 124 212 126 L 212 160 C 212 192 194 210 170 220 C 146 210 128 192 128 160 L 128 126 C 140 124 155 120 170 112 Z" fill="url(#ish)"></path>
<polyline points="150,166 165,181 192,146" fill="none" stroke="#FFFFFF" stroke-width="12" stroke-linecap="round" stroke-linejoin="round"></polyline>
</svg>