<svg xmlns="http://www.w3.org/2000/svg" viewBox="0 0 800 212" role="img" aria-label="PM DataCare">
<svg x="10" y="16" width="180" height="180" viewBox="0 0 240 240"><defs>
<linearGradient id="zdb" x1="0" y1="0" x2="0" y2="1"><stop offset="0" stop-color="#2E8FE0"></stop><stop offset="1" stop-color="#1450B4"></stop></linearGradient>
<linearGradient id="zgear" x1="0" y1="0" x2="1" y2="1"><stop offset="0" stop-color="#38A9E0"></stop><stop offset="1" stop-color="#1E63D6"></stop></linearGradient>
<linearGradient id="zsh" x1="0" y1="0" x2="0" y2="1"><stop offset="0" stop-color="#3ECFDC"></stop><stop offset="1" stop-color="#00A79D"></stop></linearGradient>
<mask id="zcut"><rect width="240" height="240" fill="white"></rect><path d="M 170 112 C 185 120 200 124 212 126 L 212 160 C 212 192 194 210 170 220 C 146 210 128 192 128 160 L 128 126 C 140 124 155 120 170 112 Z" fill="black" stroke="black" stroke-width="14" stroke-linejoin="round"></path></mask>
<mask id="zgcut"><rect width="240" height="240" fill="white"></rect><ellipse cx="105" cy="70" rx="58" ry="21" fill="black"></ellipse><rect x="49" y="70" width="116" height="112" fill="black"></rect><path d="M 170 112 C 185 120 200 124 212 126 L 212 160 C 212 192 194 210 170 220 C 146 210 128 192 128 160 L 128 126 C 140 124 155 120 170 112 Z" fill="black" stroke="black" stroke-width="18" stroke-linejoin="round"></path></mask>
<mask id="zocut"><rect width="240" height="240" fill="white"></rect><circle cx="176" cy="78" r="57" fill="black"></circle><path d="M 170 112 C 185 120 200 124 212 126 L 212 160 C 212 192 194 210 170 220 C 146 210 128 192 128 160 L 128 126 C 140 124 155 120 170 112 Z" fill="black" stroke="black" stroke-width="18" stroke-linejoin="round"></path></mask>
<linearGradient id="zorb" gradientUnits="userSpaceOnUse" x1="90" y1="209" x2="17" y2="122"><stop offset="0" stop-color="#00A79D"></stop><stop offset="1" stop-color="#2879CE"></stop></linearGradient>
</defs>
<g mask="url(#zocut)"><circle cx="105" cy="122" r="88" fill="none" stroke="url(#zorb)" stroke-width="11" stroke-dasharray="420 400" transform="rotate(55 105 122)"></circle></g>
<g mask="url(#zgcut)">
<g><path d="M 167 50 L 170.3 30.6 Q 170.5 29 172 29 L 180 29 Q 181.5 29 181.7 30.6 L 185 50 Z" fill="url(#zgear)" transform="rotate(1 176 78)"></path><path d="M 167 50 L 170.3 30.6 Q 170.5 29 172 29 L 180 29 Q 181.5 29 181.7 30.6 L 185 50 Z" fill="url(#zgear)" transform="rotate(46 176 78)"></path><path d="M 167 50 L 170.3 30.6 Q 170.5 29 172 29 L 180 29 Q 181.5 29 181.7 30.6 L 185 50 Z" fill="url(#zgear)" transform="rotate(91 176 78)"></path><path d="M 167 50 L 170.3 30.6 Q 170.5 29 172 29 L 180 29 Q 181.5 29 181.7 30.6 L 185 50 Z" fill="url(#zgear)" transform="rotate(136 176 78)"></path><path d="M 167 50 L 170.3 30.6 Q 170.5 29 172 29 L 180 29 Q 181.5 29 181.7 30.6 L 185 50 Z" fill="url(#zgear)" transform="rotate(181 176 78)"></path><path d="M 167 50 L 170.3 30.6 Q 170.5 29 172 29 L 180 29 Q 181.5 29 181.7 30.6 L 185 50 Z" fill="url(#zgear)" transform="rotate(226 176 78)"></path><path d="M 167 50 L 170.3 30.6 Q 170.5 29 172 29 L 180 29 Q 181.5 29 181.7 30.6 L 185 50 Z" fill="url(#zgear)" transform="rotate(271 176 78)"></path><path d="M 167 50 L 170.3 30.6 Q 170.5 29 172 29 L 180 29 Q 181.5 29 181.7 30.6 L 185 50 Z" fill="url(#zgear)" transform="rotate(316 176 78)"></path></g>
<circle cx="176" cy="78" r="27" fill="none" stroke="url(#zgear)" stroke-width="15"></circle>
</g>
<g mask="url(#zcut)">
<ellipse cx="105" cy="70" rx="52" ry="15" fill="url(#zdb)"></ellipse>
<path d="M 53 78 A 52 15 0 0 0 157 78 L 157 106 A 52 15 0 0 1 53 106 Z" fill="url(#zdb)"></path>
<path d="M 53 112 A 52 15 0 0 0 157 112 L 157 140 A 52 15 0 0 1 53 140 Z" fill="url(#zdb)"></path>
<path d="M 53 146 A 52 15 0 0 0 157 146 L 157 174 A 52 15 0 0 1 53 174 Z" fill="url(#zdb)"></path>
</g>
<path d="M 170 112 C 185 120 200 124 212 126 L 212 160 C 212 192 194 210 170 220 C 146 210 128 192 128 160 L 128 126 C 140 124 155 120 170 112 Z" fill="#FFFFFF" stroke="#FFFFFF" stroke-width="14" stroke-linejoin="round"></path>
<path d="M 170 112 C 185 120 200 124 212 126 L 212 160 C 212 192 194 210 170 220 C 146 210 128 192 128 160 L 128 126 C 140 124 155 120 170 112 Z" fill="url(#zsh)"></path>
<polyline points="150,166 165,181 192,146" fill="none" stroke="#FFFFFF" stroke-width="12" stroke-linecap="round" stroke-linejoin="round"></polyline></svg><g transform="translate(-25,-22)"><path fill="#0D3B66" d="M242.8 130L236.2 130L236.2 82.5L252.2 82.5Q256.9 82.5 260.6 83.6Q264.2 84.6 266.7 86.7Q269.2 88.8 270.6 91.9Q271.9 94.9 271.9 99.0L271.9 99.0Q271.9 104.3 269.5 108.0Q267.0 111.6 262.3 113.5Q257.5 115.5 250.6 115.5L250.6 115.5L242.8 115.5L242.8 130ZM252.1 88.0L242.8 88.0L242.8 109.8L251.4 109.8Q258.2 109.8 261.7 107.2Q265.1 104.6 265.1 98.8L265.1 98.8Q265.1 93.4 261.9 90.7Q258.7 88.0 252.1 88.0L252.1 88.0ZM287.2 130L280.9 130L280.9 82.5L291.1 82.5L306.9 123.1L307.3 123.1L323.0 82.5L332.8 82.5L332.8 130L326.6 130L327.0 89.2L326.4 89.2L310.1 130L303.6 130L287.4 89.1L286.8 89.1L287.2 130Z"></path><path fill="#1E63D6" d="M381.7 130L362.2 130L362.2 82.5L379.5 82.5Q388.3 82.5 393.9 85.3Q399.6 88.1 402.2 93.3Q404.7 98.5 404.7 105.8L404.7 105.8Q404.7 111.4 403.4 115.5Q402.1 119.6 399.8 122.4Q397.5 125.2 394.5 126.9Q391.5 128.6 388.2 129.3Q384.9 130 381.7 130L381.7 130ZM379.9 91.8L373.8 91.8L373.8 120.6L381.3 120.6Q385.1 120.6 387.6 119.1Q390.1 117.5 391.4 114.3Q392.6 111.1 392.6 106.4L392.6 106.4Q392.6 102.6 391.9 99.8Q391.1 97.1 389.5 95.3Q388.0 93.6 385.6 92.7Q383.1 91.8 379.9 91.8L379.9 91.8ZM421.4 131.0L421.4 131.0Q418.2 131.0 415.8 129.7Q413.3 128.5 411.9 126.1Q410.6 123.7 410.6 120.2L410.6 120.2Q410.6 117.0 411.8 114.8Q413.1 112.7 415.5 111.5Q417.9 110.2 421.3 109.4Q424.7 108.5 429.0 107.9L429.0 107.9Q431.1 107.5 432.5 107.2Q433.9 106.9 434.6 106.2Q435.3 105.4 435.3 104.1L435.3 104.1Q435.3 102.3 434.0 101.0Q432.8 99.7 429.9 99.7L429.9 99.7Q427.9 99.7 426.2 100.4Q424.6 101.1 423.5 102.5Q422.3 103.9 421.7 105.8L421.7 105.8L411.5 102.8Q412.4 99.8 414.1 97.5Q415.8 95.3 418.2 93.8Q420.6 92.3 423.6 91.7Q426.7 91.0 430.2 91.0L430.2 91.0Q435.9 91.0 439.6 92.8Q443.2 94.6 445.0 98.5Q446.7 102.4 446.7 108.4L446.7 108.4L446.7 114.2Q446.7 116.8 446.8 119.5Q446.9 122.1 447.1 124.7Q447.3 127.3 447.6 130L447.6 130L437.4 130Q437.1 128.3 436.8 126.0Q436.5 123.7 436.4 121.2L436.4 121.2L435.0 121.2Q434.0 124.0 432.1 126.2Q430.2 128.5 427.5 129.7Q424.8 131.0 421.4 131.0ZM426.6 122.8L426.6 122.8Q427.9 122.8 429.3 122.3Q430.6 121.9 431.8 121.0Q433.0 120.2 434.0 119.0Q435.1 117.8 435.6 116.3L435.6 116.3L435.4 111.8Q434.8 112.1 434.0 112.4L434.0 112.4Q432.3 112.9 430.6 113.2Q428.9 113.4 427.3 113.8Q425.7 114.1 424.4 114.6Q423.2 115.1 422.5 116.0Q421.7 116.8 421.7 118.3L421.7 118.3Q421.7 120.4 423.1 121.6Q424.5 122.8 426.6 122.8ZM470.1 130.9L470.1 130.9Q463.4 130.9 460.3 127.4Q457.1 123.8 457.1 116.0L457.1 116.0L457.1 101.1L451.7 101.1L451.9 92.1L455.8 92.1Q458.1 92.0 459.3 91.3Q460.5 90.7 460.8 88.9L460.8 88.9L461.7 83.6L468.2 83.6L468.2 92.0L477.4 92.0L477.4 101.4L468.2 101.4L468.2 115.5Q468.2 117.9 469.4 119.1Q470.6 120.2 473.1 120.2L473.1 120.2Q474.4 120.2 475.7 119.9Q476.9 119.6 477.7 119.1L477.7 119.1L477.7 129.9Q475.4 130.6 473.5 130.8Q471.6 130.9 470.1 130.9ZM493.4 131.0L493.4 131.0Q490.3 131.0 487.8 129.7Q485.4 128.5 484.0 126.1Q482.6 123.7 482.6 120.2L482.6 120.2Q482.6 117.0 483.9 114.8Q485.2 112.7 487.6 111.5Q490.0 110.2 493.4 109.4Q496.8 108.5 501.1 107.9L501.1 107.9Q503.2 107.5 504.6 107.2Q506.0 106.9 506.7 106.2Q507.4 105.4 507.4 104.1L507.4 104.1Q507.4 102.3 506.1 101.0Q504.8 99.7 501.9 99.7L501.9 99.7Q499.9 99.7 498.3 100.4Q496.7 101.1 495.5 102.5Q494.4 103.9 493.8 105.8L493.8 105.8L483.6 102.8Q484.5 99.8 486.2 97.5Q487.9 95.3 490.3 93.8Q492.7 92.3 495.7 91.7Q498.8 91.0 502.2 91.0L502.2 91.0Q508.0 91.0 511.6 92.8Q515.3 94.6 517.0 98.5Q518.8 102.4 518.8 108.4L518.8 108.4L518.8 114.2Q518.8 116.8 518.9 119.5Q519.0 122.1 519.2 124.7Q519.4 127.3 519.7 130L519.7 130L509.4 130Q509.1 128.3 508.9 126.0Q508.6 123.7 508.4 121.2L508.4 121.2L507.1 121.2Q506.0 124.0 504.1 126.2Q502.2 128.5 499.5 129.7Q496.8 131.0 493.4 131.0ZM498.7 122.8L498.7 122.8Q500.0 122.8 501.3 122.3Q502.7 121.9 503.9 121.0Q505.1 120.2 506.1 119.0Q507.1 117.8 507.6 116.3L507.6 116.3L507.5 111.8Q506.8 112.1 506.0 112.4L506.0 112.4Q504.4 112.9 502.7 113.2Q501.0 113.4 499.4 113.8Q497.8 114.1 496.5 114.6Q495.2 115.1 494.5 116.0Q493.8 116.8 493.8 118.3L493.8 118.3Q493.8 120.4 495.2 121.6Q496.5 122.8 498.7 122.8Z"></path><path fill="#00A79D" d="M550.2 131.0L550.2 131.0Q544.6 131.0 540.1 129.5Q535.6 128.0 532.5 124.9Q529.4 121.8 527.8 117.3Q526.1 112.8 526.1 106.7L526.1 106.7Q526.1 100.6 527.8 95.9Q529.4 91.2 532.6 88.0Q535.7 84.7 540.0 83.1Q544.2 81.5 549.4 81.5L549.4 81.5Q553.5 81.5 556.9 82.5Q560.3 83.5 562.9 85.5Q565.4 87.4 566.8 90.2Q568.2 93.0 568.3 96.5L568.3 96.5L557.5 99.5Q557.5 96.5 556.3 94.6Q555.0 92.8 553.1 91.8Q551.2 90.8 549.0 90.8L549.0 90.8Q547.2 90.8 545.3 91.6Q543.3 92.3 541.8 94.1Q540.2 95.9 539.2 98.8Q538.3 101.6 538.3 106.0L538.3 106.0Q538.3 111.6 539.9 115.0Q541.5 118.5 544.3 120.1Q547.1 121.7 550.5 121.7L550.5 121.7Q554.2 121.7 556.3 120.1Q558.3 118.5 559.2 116.0Q560.0 113.6 560.1 111.1L560.1 111.1L570.2 112.6Q570.1 116.5 569.0 119.9Q568.0 123.3 565.6 125.8Q563.3 128.3 559.5 129.6Q555.7 131.0 550.2 131.0ZM585.6 131.0L585.6 131.0Q582.4 131.0 580.0 129.7Q577.5 128.5 576.2 126.1Q574.8 123.7 574.8 120.2L574.8 120.2Q574.8 117.0 576.1 114.8Q577.3 112.7 579.7 111.5Q582.2 110.2 585.5 109.4Q588.9 108.5 593.2 107.9L593.2 107.9Q595.3 107.5 596.7 107.2Q598.1 106.9 598.9 106.2Q599.6 105.4 599.6 104.1L599.6 104.1Q599.6 102.3 598.3 101.0Q597.0 99.7 594.1 99.7L594.1 99.7Q592.1 99.7 590.5 100.4Q588.8 101.1 587.7 102.5Q586.5 103.9 586.0 105.8L586.0 105.8L575.7 102.8Q576.7 99.8 578.4 97.5Q580.1 95.3 582.4 93.8Q584.8 92.3 587.9 91.7Q590.9 91.0 594.4 91.0L594.4 91.0Q600.2 91.0 603.8 92.8Q607.4 94.6 609.2 98.5Q611.0 102.4 611.0 108.4L611.0 108.4L611.0 114.2Q611.0 116.8 611.1 119.5Q611.2 122.1 611.3 124.7Q611.5 127.3 611.8 130L611.8 130L601.6 130Q601.3 128.3 601.0 126.0Q600.7 123.7 600.6 121.2L600.6 121.2L599.2 121.2Q598.2 124.0 596.3 126.2Q594.4 128.5 591.7 129.7Q589.0 131.0 585.6 131.0ZM590.9 122.8L590.9 122.8Q592.2 122.8 593.5 122.3Q594.8 121.9 596.0 121.0Q597.3 120.2 598.3 119.0Q599.3 117.8 599.8 116.3L599.8 116.3L599.6 111.8Q599.0 112.1 598.2 112.4L598.2 112.4Q596.6 112.9 594.9 113.2Q593.2 113.4 591.5 113.8Q589.9 114.1 588.7 114.6Q587.4 115.1 586.7 116.0Q586.0 116.8 586.0 118.3L586.0 118.3Q586.0 120.4 587.3 121.6Q588.7 122.8 590.9 122.8ZM631.2 130L619.5 130L619.5 92.0L629.0 92.0L629.2 104.9L630.7 104.9Q631.2 99.8 632.6 96.8Q634.0 93.9 636.6 92.5Q639.2 91.1 643.1 91.1L643.1 91.1Q643.7 91.1 644.4 91.2Q645.2 91.2 646.1 91.3L646.1 91.3L645.7 103.7Q644.5 103.1 643.2 103.0Q641.8 102.8 640.8 102.8L640.8 102.8Q638.0 102.8 636.0 103.9Q633.9 104.9 632.7 107.2Q631.5 109.4 631.2 112.8L631.2 112.8L631.2 130ZM669.7 131.0L669.7 131.0Q665.0 131.0 661.2 129.7Q657.5 128.5 654.8 126.0Q652.2 123.6 650.8 120.0Q649.5 116.4 649.5 111.7L649.5 111.7Q649.5 107.2 650.8 103.4Q652.1 99.5 654.6 96.8Q657.1 94 660.7 92.5Q664.4 91.0 668.9 91.0L668.9 91.0Q673.5 91.0 677.0 92.5Q680.5 93.9 682.8 96.8Q685.0 99.7 686.1 103.8Q687.2 108.0 686.8 113.3L686.8 113.3L660.6 113.5Q661.0 117.9 663.2 120.1L663.2 120.1Q665.7 122.7 669.6 122.7L669.6 122.7Q671.6 122.7 672.9 122.2Q674.2 121.6 675.0 120.8Q675.8 120.0 676.3 119.0Q676.8 118.0 677.0 117.0L677.0 117.0L687.1 119.2Q686.6 121.9 685.3 124.0Q684.0 126.2 681.9 127.8Q679.8 129.4 676.8 130.2Q673.8 131.0 669.7 131.0ZM660.9 107.5L660.9 107.5L676.3 107.3Q676.3 105.5 675.7 104.2L675.7 104.2Q674.7 101.9 672.9 100.9Q671.1 99.8 669.1 99.8L669.1 99.8Q666.5 99.8 664.6 101.2Q662.7 102.6 661.6 105.2L661.6 105.2Q661.2 106.2 660.9 107.5Z"></path></g><path transform="translate(-25,-22)" fill="#607D8B" d="M242.6 182.4L242.6 182.4Q240.8 182.4 239.4 182.0Q238.1 181.6 237.2 180.9Q236.3 180.1 235.9 179.0Q235.4 177.9 235.5 176.5L235.5 176.5L237.7 176.0Q237.6 177.4 238.2 178.4Q238.8 179.3 239.9 179.8Q241.1 180.3 242.6 180.3L242.6 180.3Q244.2 180.3 245.2 179.9Q246.3 179.5 246.8 178.8Q247.3 178.2 247.3 177.3L247.3 177.3Q247.3 176.3 246.7 175.8Q246.1 175.2 245.0 174.9Q244.0 174.6 242.7 174.3L242.7 174.3Q241.5 174.0 240.2 173.7Q239.0 173.3 238.0 172.8Q237.0 172.2 236.4 171.3Q235.8 170.4 235.8 169.0L235.8 169.0Q235.8 167.4 236.6 166.3Q237.4 165.1 238.9 164.5Q240.3 163.8 242.3 163.8L242.3 163.8Q244.2 163.8 245.8 164.4Q247.3 165.1 248.2 166.3Q249.1 167.5 249.1 169.2L249.1 169.2L246.8 169.8Q246.8 168.8 246.5 168.1Q246.1 167.3 245.5 166.9Q244.9 166.4 244.1 166.1Q243.3 165.9 242.3 165.9L242.3 165.9Q241.0 165.9 240.1 166.3Q239.2 166.6 238.7 167.3Q238.2 167.9 238.2 168.8L238.2 168.8Q238.2 169.9 238.9 170.5Q239.7 171.1 240.9 171.4Q242.0 171.8 243.4 172.1L243.4 172.1Q244.6 172.3 245.7 172.7Q246.8 173.0 247.7 173.6Q248.6 174.1 249.2 175.0Q249.7 175.9 249.7 177.3L249.7 177.3Q249.7 178.8 248.9 179.9Q248.1 181.1 246.5 181.7Q244.9 182.4 242.6 182.4ZM257.6 182.3L257.6 182.3Q255.7 182.3 254.7 181.2Q253.8 180.2 253.8 178.0L253.8 178.0L253.8 170.1L251.7 170.1L251.7 168.0L253.0 168.0Q253.7 168.0 254.0 167.8Q254.3 167.6 254.4 167.0L254.4 167.0L254.7 164.9L256.2 164.9L256.2 168.0L260.2 168.0L260.2 170.1L256.2 170.1L256.2 177.9Q256.2 179.0 256.7 179.5Q257.2 180.0 258.1 180.0L258.1 180.0Q258.6 180.0 259.2 179.8Q259.7 179.7 260.3 179.3L260.3 179.3L260.3 181.8Q259.5 182.1 258.8 182.2Q258.2 182.3 257.6 182.3ZM265.8 182L263.3 182L263.3 168.0L265.5 168.0L265.3 172.9L265.8 172.9Q266.0 171.3 266.5 170.1Q267.0 169.0 267.9 168.3Q268.7 167.7 270.0 167.7L270.0 167.7Q270.3 167.7 270.6 167.7Q271.0 167.8 271.4 167.9L271.4 167.9L271.3 170.5Q270.9 170.3 270.5 170.3Q270.1 170.2 269.7 170.2L269.7 170.2Q268.6 170.2 267.9 170.9Q267.1 171.6 266.6 172.7Q266.1 173.8 265.8 175.3L265.8 175.3L265.8 182ZM280.1 182.4L280.1 182.4Q278.4 182.4 277.2 181.9Q275.9 181.4 275.0 180.4Q274.2 179.5 273.7 178.2Q273.3 176.9 273.3 175.3L273.3 175.3Q273.3 173.6 273.7 172.2Q274.2 170.8 275.0 169.8Q275.9 168.8 277.1 168.2Q278.3 167.7 279.8 167.7L279.8 167.7Q281.2 167.7 282.4 168.1Q283.5 168.6 284.3 169.6Q285.1 170.5 285.5 172.0Q285.9 173.4 285.8 175.4L285.8 175.4L275.7 175.4Q275.8 177.8 276.8 179.0L276.8 179.0Q277.9 180.3 280.1 180.3L280.1 180.3Q281.0 180.3 281.6 180.1Q282.2 179.9 282.7 179.6Q283.1 179.2 283.4 178.7Q283.7 178.2 283.8 177.7L283.8 177.7L286.0 178.2Q285.8 179.1 285.3 179.9Q284.8 180.7 284.0 181.2Q283.3 181.8 282.3 182.1Q281.3 182.4 280.1 182.4ZM275.8 173.8L275.8 173.8L283.5 173.7Q283.5 172.7 283.2 172.0L283.2 172.0Q282.7 170.9 281.9 170.3Q281.0 169.8 279.8 169.8L279.8 169.8Q278.6 169.8 277.7 170.4Q276.7 171.1 276.2 172.3L276.2 172.3Q275.9 173.0 275.8 173.8ZM292.5 182.4L292.5 182.4Q291.4 182.4 290.5 181.9Q289.5 181.5 289.0 180.6Q288.5 179.7 288.5 178.4L288.5 178.4Q288.5 177.4 288.8 176.6Q289.2 175.8 290.0 175.3Q290.7 174.8 291.9 174.4Q293.2 174.1 294.9 173.8L294.9 173.8Q295.9 173.7 296.5 173.5Q297.2 173.4 297.5 173.1Q297.8 172.8 297.8 172.2L297.8 172.2Q297.8 171.1 297.1 170.4Q296.4 169.7 294.9 169.7L294.9 169.7Q294.1 169.7 293.3 170.0Q292.5 170.3 291.8 170.9Q291.2 171.6 291.1 172.7L291.1 172.7L288.8 171.9Q289.0 171.0 289.5 170.2Q290.0 169.4 290.8 168.8Q291.6 168.3 292.6 168.0Q293.7 167.7 294.9 167.7L294.9 167.7Q296.7 167.7 297.9 168.3Q299.0 168.9 299.6 170.1Q300.2 171.3 300.2 173.3L300.2 173.3L300.2 176.4Q300.2 177.2 300.2 178.2Q300.3 179.2 300.4 180.2Q300.4 181.1 300.5 182L300.5 182L298.3 182Q298.2 181.1 298.1 180.3Q298.0 179.4 298.0 178.5L298.0 178.5L297.7 178.5Q297.3 179.5 296.6 180.4Q295.9 181.3 294.9 181.8Q293.9 182.4 292.5 182.4ZM293.2 180.4L293.2 180.4Q293.8 180.4 294.4 180.2Q295.0 180.0 295.7 179.5Q296.3 179.1 296.8 178.4Q297.4 177.8 297.8 176.8L297.8 176.8L297.8 174.7Q297.6 174.8 297.4 174.9L297.4 174.9Q296.6 175.1 295.8 175.3Q294.9 175.4 294.0 175.5Q293.2 175.7 292.5 176.0Q291.8 176.2 291.3 176.8Q290.9 177.3 290.9 178.2L290.9 178.2Q290.9 179.2 291.5 179.8Q292.2 180.4 293.2 180.4ZM306.8 182L304.3 182L304.3 168.0L306.5 168.0L306.3 172.5L306.7 172.5Q307.1 170.9 307.7 169.8Q308.3 168.7 309.2 168.2Q310.0 167.7 311.2 167.7L311.2 167.7Q312.5 167.7 313.4 168.4Q314.2 169.0 314.7 170.1Q315.1 171.1 315.1 172.4L315.1 172.4L315.5 172.4Q315.8 170.9 316.4 169.8Q317.1 168.8 318.0 168.2Q318.9 167.7 320.1 167.7L320.1 167.7Q321.2 167.7 322.0 168.1Q322.8 168.6 323.3 169.4Q323.9 170.3 324.2 171.5Q324.5 172.7 324.5 174.4L324.5 174.4L324.5 182L322.0 182L322.0 174.7Q322.0 173.1 321.7 172.0Q321.4 171.0 320.8 170.4Q320.2 169.9 319.3 169.9L319.3 169.9Q318.3 169.9 317.6 170.6Q316.8 171.3 316.3 172.5Q315.8 173.7 315.6 175.3L315.6 175.3L315.6 182L313.2 182L313.2 174.9Q313.2 173.3 312.9 172.1Q312.6 171.0 312.0 170.5Q311.4 169.9 310.5 169.9L310.5 169.9Q309.4 169.9 308.7 170.6Q307.9 171.4 307.4 172.6Q306.9 173.9 306.8 175.4L306.8 175.4L306.8 182ZM331.0 182L328.5 182L328.5 163.1L331.0 163.1L331.0 182ZM337.7 182L335.2 182L335.2 168.0L337.7 168.0L337.7 182ZM336.5 165.6L336.5 165.6Q335.6 165.6 335.2 165.3Q334.7 164.9 334.7 164.2L334.7 164.2Q334.7 163.5 335.2 163.2Q335.6 162.8 336.4 162.8L336.4 162.8Q337.3 162.8 337.7 163.2Q338.2 163.5 338.2 164.2L338.2 164.2Q338.2 164.9 337.7 165.2Q337.3 165.6 336.5 165.6ZM344.4 182L341.9 182L341.9 168.0L344.2 168.0L343.9 172.5L344.4 172.5Q344.8 170.8 345.4 169.8Q346.0 168.7 347.0 168.2Q348.0 167.7 349.3 167.7L349.3 167.7Q351.6 167.7 352.8 169.4Q354.0 171.0 354.0 174.3L354.0 174.3L354.0 182L351.5 182L351.5 174.5Q351.5 172.1 350.8 171.0Q350.0 169.9 348.6 169.9L348.6 169.9Q347.3 169.9 346.4 170.7Q345.5 171.5 345.0 172.8Q344.5 174.1 344.4 175.7L344.4 175.7L344.4 182ZM360.5 182L358.1 182L358.1 168.0L360.5 168.0L360.5 182ZM359.3 165.6L359.3 165.6Q358.4 165.6 358.0 165.3Q357.6 164.9 357.6 164.2L357.6 164.2Q357.6 163.5 358.0 163.2Q358.4 162.8 359.3 162.8L359.3 162.8Q360.1 162.8 360.6 163.2Q361.0 163.5 361.0 164.2L361.0 164.2Q361.0 164.9 360.6 165.2Q360.1 165.6 359.3 165.6ZM367.2 182L364.8 182L364.8 168.0L367.0 168.0L366.8 172.5L367.2 172.5Q367.6 170.8 368.2 169.8Q368.9 168.7 369.8 168.2Q370.8 167.7 372.1 167.7L372.1 167.7Q374.4 167.7 375.6 169.4Q376.8 171.0 376.8 174.3L376.8 174.3L376.8 182L374.3 182L374.3 174.5Q374.3 172.1 373.6 171.0Q372.9 169.9 371.4 169.9L371.4 169.9Q370.1 169.9 369.2 170.7Q368.3 171.5 367.8 172.8Q367.3 174.1 367.2 175.7L367.2 175.7L367.2 182ZM386.1 186.7L386.1 186.7Q383.9 186.7 382.5 186.4Q381.0 186.1 380.4 185.4Q379.7 184.7 379.7 183.6L379.7 183.6Q379.7 182.4 380.7 181.6Q381.6 180.8 383.6 180.5L383.6 180.5L383.6 180.0Q382.2 180.0 381.4 179.7Q380.7 179.3 380.7 178.6L380.7 178.6Q380.7 177.9 381.4 177.4Q382.2 176.9 383.8 176.5L383.8 176.5L383.8 176.0Q382.2 175.9 381.3 175.0Q380.4 174.0 380.4 172.5L380.4 172.5Q380.4 171.1 381.2 170.1Q381.9 169.1 383.4 168.5Q384.8 168.0 386.7 168.0L386.7 168.0L393.3 168.0L393.3 170.0L389.0 169.4L389.0 169.9Q390.6 170.2 391.4 171.0Q392.2 171.7 392.2 173.0L392.2 173.0Q392.2 174.2 391.6 175.1Q390.9 175.9 389.6 176.4Q388.3 176.9 386.4 176.9L386.4 176.9Q386.0 176.9 385.6 176.8Q385.1 176.8 384.5 176.7L384.5 176.7Q383.7 177.1 383.3 177.5Q382.9 177.9 382.9 178.2L382.9 178.2Q382.9 178.5 383.3 178.7Q383.7 178.8 384.3 178.9Q384.9 178.9 385.4 178.9L385.4 178.9L388.5 178.9Q389.1 178.9 389.9 179.1Q390.7 179.2 391.6 179.5Q392.4 179.9 392.9 180.6Q393.5 181.3 393.5 182.6L393.5 182.6Q393.5 184.1 392.7 185.0Q391.8 185.9 390.1 186.3Q388.5 186.7 386.1 186.7ZM386.1 184.7L386.1 184.7Q387.9 184.7 389.1 184.5Q390.2 184.2 390.7 183.8Q391.2 183.3 391.2 182.5L391.2 182.5Q391.2 181.8 390.9 181.4Q390.5 181.0 390.0 180.9Q389.4 180.7 388.9 180.7Q388.4 180.6 388.0 180.6L388.0 180.6L384.8 180.6Q383.3 181.0 382.7 181.6Q382.1 182.2 382.1 182.9L382.1 182.9Q382.1 183.7 382.6 184.1Q383.1 184.4 384.1 184.6Q385.0 184.7 386.1 184.7ZM386.5 175.3L386.5 175.3Q388.2 175.3 389.0 174.6Q389.9 173.9 389.9 172.7L389.9 172.7Q389.9 171.4 389.0 170.6Q388.1 169.8 386.4 169.8L386.4 169.8Q384.7 169.8 383.8 170.6Q382.9 171.3 382.9 172.6L382.9 172.6Q382.9 173.4 383.3 174.0Q383.7 174.6 384.5 174.9Q385.3 175.3 386.5 175.3ZM409.9 182.4L409.9 182.4Q408.1 182.4 406.7 182.0Q405.4 181.6 404.5 180.9Q403.6 180.1 403.2 179.0Q402.7 177.9 402.8 176.5L402.8 176.5L405.0 176.0Q404.9 177.4 405.5 178.4Q406.0 179.3 407.2 179.8Q408.4 180.3 409.9 180.3L409.9 180.3Q411.4 180.3 412.5 179.9Q413.6 179.5 414.1 178.8Q414.6 178.2 414.6 177.3L414.6 177.3Q414.6 176.3 414.0 175.8Q413.4 175.2 412.3 174.9Q411.3 174.6 410.0 174.3L410.0 174.3Q408.8 174.0 407.5 173.7Q406.3 173.3 405.3 172.8Q404.3 172.2 403.7 171.3Q403.1 170.4 403.1 169.0L403.1 169.0Q403.1 167.4 403.9 166.3Q404.7 165.1 406.2 164.5Q407.6 163.8 409.6 163.8L409.6 163.8Q411.5 163.8 413.1 164.4Q414.6 165.1 415.5 166.3Q416.4 167.5 416.4 169.2L416.4 169.2L414.1 169.8Q414.1 168.8 413.8 168.1Q413.4 167.3 412.8 166.9Q412.2 166.4 411.4 166.1Q410.6 165.9 409.6 165.9L409.6 165.9Q408.3 165.9 407.4 166.3Q406.5 166.6 406.0 167.3Q405.5 167.9 405.5 168.8L405.5 168.8Q405.5 169.9 406.2 170.5Q407.0 171.1 408.2 171.4Q409.3 171.8 410.7 172.1L410.7 172.1Q411.8 172.3 413.0 172.7Q414.1 173.0 415.0 173.6Q415.9 174.1 416.5 175.0Q417.0 175.9 417.0 177.3L417.0 177.3Q417.0 178.8 416.2 179.9Q415.4 181.1 413.8 181.7Q412.2 182.4 409.9 182.4ZM421.9 182L419.2 182L425.5 164.2L429.1 164.2L435.4 182L432.7 182L431.4 178.0L423.2 178.0L421.9 182ZM423.9 176.1L430.7 176.1L427.5 166.3L427.2 166.3L423.9 176.1ZM441.0 182L438.5 182L438.5 164.2L444.5 164.2Q446.3 164.2 447.6 164.6Q449.0 165.0 449.9 165.8Q450.9 166.6 451.4 167.7Q451.9 168.9 451.9 170.4L451.9 170.4Q451.9 172.4 451.0 173.7Q450.1 175.1 448.3 175.8Q446.5 176.5 443.9 176.5L443.9 176.5L441.0 176.5L441.0 182ZM444.5 166.2L441.0 166.2L441.0 174.4L444.2 174.4Q446.8 174.4 448.1 173.5Q449.4 172.5 449.4 170.3L449.4 170.3Q449.4 168.3 448.2 167.2Q446.9 166.2 444.5 166.2L444.5 166.2ZM464.6 182L462.1 182L462.1 164.2L468.1 164.2Q469.9 164.2 471.2 164.6Q472.6 165.0 473.5 165.8Q474.5 166.6 475.0 167.7Q475.5 168.9 475.5 170.4L475.5 170.4Q475.5 172.4 474.6 173.7Q473.7 175.1 471.9 175.8Q470.1 176.5 467.5 176.5L467.5 176.5L464.6 176.5L464.6 182ZM468.1 166.2L464.6 166.2L464.6 174.4L467.8 174.4Q470.4 174.4 471.7 173.5Q473.0 172.5 473.0 170.3L473.0 170.3Q473.0 168.3 471.7 167.2Q470.5 166.2 468.1 166.2L468.1 166.2ZM481.2 182L478.9 182L478.9 164.2L482.7 164.2L488.6 179.4L488.7 179.4L494.6 164.2L498.3 164.2L498.3 182L496.0 182L496.1 166.7L495.9 166.7L489.8 182L487.4 182L481.3 166.7L481.1 166.7L481.2 182ZM512.2 182L509.8 182L509.8 164.2L513.6 164.2L519.6 179.4L519.7 179.4L525.6 164.2L529.3 164.2L529.3 182L526.9 182L527.1 166.7L526.9 166.7L520.7 182L518.3 182L512.2 166.7L512.0 166.7L512.2 182ZM536.9 182.4L536.9 182.4Q535.8 182.4 534.9 181.9Q534.0 181.5 533.4 180.6Q532.9 179.7 532.9 178.4L532.9 178.4Q532.9 177.4 533.3 176.6Q533.6 175.8 534.4 175.3Q535.2 174.8 536.4 174.4Q537.6 174.1 539.3 173.8L539.3 173.8Q540.3 173.7 541.0 173.5Q541.6 173.4 541.9 173.1Q542.2 172.8 542.2 172.2L542.2 172.2Q542.2 171.1 541.5 170.4Q540.8 169.7 539.3 169.7L539.3 169.7Q538.5 169.7 537.7 170.0Q536.9 170.3 536.3 170.9Q535.7 171.6 535.5 172.7L535.5 172.7L533.2 171.9Q533.5 171.0 534.0 170.2Q534.5 169.4 535.2 168.8Q536.0 168.3 537.1 168.0Q538.1 167.7 539.4 167.7L539.4 167.7Q541.1 167.7 542.3 168.3Q543.5 168.9 544.1 170.1Q544.6 171.3 544.6 173.3L544.6 173.3L544.6 176.4Q544.6 177.2 544.7 178.2Q544.7 179.2 544.8 180.2Q544.9 181.1 545.0 182L545.0 182L542.7 182Q542.6 181.1 542.5 180.3Q542.5 179.4 542.4 178.5L542.4 178.5L542.1 178.5Q541.7 179.5 541.0 180.4Q540.3 181.3 539.3 181.8Q538.3 182.4 536.9 182.4ZM537.7 180.4L537.7 180.4Q538.3 180.4 538.9 180.2Q539.5 180.0 540.1 179.5Q540.7 179.1 541.2 178.4Q541.8 177.8 542.2 176.8L542.2 176.8L542.2 174.7Q542.0 174.8 541.8 174.9L541.8 174.9Q541.1 175.1 540.2 175.3Q539.3 175.4 538.5 175.5Q537.6 175.7 536.9 176.0Q536.2 176.2 535.8 176.8Q535.3 177.3 535.3 178.2L535.3 178.2Q535.3 179.2 536.0 179.8Q536.6 180.4 537.7 180.4ZM554.0 182.4L554.0 182.4Q552.5 182.4 551.4 182.0Q550.2 181.7 549.5 181.1Q548.7 180.6 548.3 179.8Q547.9 178.9 547.9 178.0L547.9 178.0L550.0 177.4Q549.9 178.3 550.4 179.0Q550.9 179.7 551.8 180.0Q552.8 180.4 554.1 180.4L554.1 180.4Q555.7 180.4 556.6 179.8Q557.4 179.3 557.4 178.3L557.4 178.3Q557.4 177.6 556.9 177.2Q556.5 176.7 555.6 176.5Q554.8 176.2 553.6 176.0L553.6 176.0Q552.6 175.8 551.7 175.5Q550.7 175.3 549.9 174.8Q549.1 174.4 548.6 173.6Q548.1 172.9 548.1 171.8L548.1 171.8Q548.1 170.6 548.8 169.6Q549.5 168.7 550.7 168.2Q552.0 167.7 553.7 167.7L553.7 167.7Q555.4 167.7 556.6 168.2Q557.8 168.7 558.5 169.7Q559.2 170.6 559.3 171.9L559.3 171.9L557.2 172.4Q557.2 171.6 556.7 170.9Q556.3 170.3 555.5 170.0Q554.7 169.7 553.6 169.7L553.6 169.7Q552.1 169.7 551.3 170.2Q550.5 170.8 550.5 171.7L550.5 171.7Q550.5 172.4 551.0 172.8Q551.5 173.3 552.3 173.5Q553.2 173.8 554.2 174.0L554.2 174.0Q555.3 174.2 556.3 174.5Q557.3 174.8 558.1 175.2Q558.9 175.6 559.3 176.3Q559.8 177.1 559.8 178.2L559.8 178.2Q559.8 179.5 559.1 180.5Q558.3 181.4 557.0 181.9Q555.7 182.4 554.0 182.4ZM567.4 182.3L567.4 182.3Q565.5 182.3 564.5 181.2Q563.6 180.2 563.6 178.0L563.6 178.0L563.6 170.1L561.5 170.1L561.5 168.0L562.8 168.0Q563.5 168.0 563.8 167.8Q564.1 167.6 564.2 167.0L564.2 167.0L564.5 164.9L566.0 164.9L566.0 168.0L570.0 168.0L570.0 170.1L566.0 170.1L566.0 177.9Q566.0 179.0 566.5 179.5Q567.0 180.0 567.9 180.0L567.9 180.0Q568.4 180.0 569.0 179.8Q569.5 179.7 570.1 179.3L570.1 179.3L570.1 181.8Q569.3 182.1 568.6 182.2Q568.0 182.3 567.4 182.3ZM579.1 182.4L579.1 182.4Q577.4 182.4 576.2 181.9Q574.9 181.4 574.1 180.4Q573.2 179.5 572.8 178.2Q572.3 176.9 572.3 175.3L572.3 175.3Q572.3 173.6 572.8 172.2Q573.2 170.8 574.0 169.8Q574.9 168.8 576.1 168.2Q577.3 167.7 578.9 167.7L578.9 167.7Q580.2 167.7 581.4 168.1Q582.5 168.6 583.3 169.6Q584.1 170.5 584.5 172.0Q584.9 173.4 584.8 175.4L584.8 175.4L574.7 175.4Q574.8 177.8 575.8 179.0L575.8 179.0Q577.0 180.3 579.1 180.3L579.1 180.3Q580.0 180.3 580.6 180.1Q581.2 179.9 581.7 179.6Q582.1 179.2 582.4 178.7Q582.7 178.2 582.9 177.7L582.9 177.7L585.0 178.2Q584.8 179.1 584.3 179.9Q583.8 180.7 583.0 181.2Q582.3 181.8 581.3 182.1Q580.4 182.4 579.1 182.4ZM574.8 173.8L574.8 173.8L582.5 173.7Q582.5 172.7 582.2 172.0L582.2 172.0Q581.7 170.9 580.9 170.3Q580.0 169.8 578.9 169.8L578.9 169.8Q577.6 169.8 576.7 170.4Q575.7 171.1 575.3 172.3L575.3 172.3Q575.0 173.0 574.8 173.8ZM590.8 182L588.3 182L588.3 168.0L590.5 168.0L590.3 172.9L590.8 172.9Q591.0 171.3 591.5 170.1Q592.0 169.0 592.9 168.3Q593.7 167.7 595.0 167.7L595.0 167.7Q595.3 167.7 595.6 167.7Q596.0 167.8 596.4 167.9L596.4 167.9L596.3 170.5Q595.9 170.3 595.5 170.3Q595.1 170.2 594.7 170.2L594.7 170.2Q593.7 170.2 592.9 170.9Q592.1 171.6 591.6 172.7Q591.1 173.8 590.8 175.3L590.8 175.3L590.8 182ZM612.8 182L606.1 182L606.1 164.2L611.9 164.2Q614.9 164.2 616.9 165.2Q618.8 166.3 619.7 168.3Q620.6 170.2 620.6 173.0L620.6 173.0Q620.6 174.8 620.2 176.2Q619.8 177.7 619.1 178.8Q618.4 179.8 617.4 180.6Q616.5 181.3 615.3 181.6Q614.1 182 612.8 182L612.8 182ZM612.0 166.3L608.6 166.3L608.6 179.9L612.7 179.9Q614.5 179.9 615.7 179.0Q616.9 178.2 617.5 176.7Q618.1 175.1 618.1 173.1L618.1 173.1Q618.1 171.4 617.7 170.1Q617.3 168.8 616.6 168.0Q615.8 167.2 614.7 166.7Q613.5 166.3 612.0 166.3L612.0 166.3ZM627.7 182.4L627.7 182.4Q626.5 182.4 625.6 181.9Q624.7 181.5 624.2 180.6Q623.6 179.7 623.6 178.4L623.6 178.4Q623.6 177.4 624.0 176.6Q624.3 175.8 625.1 175.3Q625.9 174.8 627.1 174.4Q628.3 174.1 630.1 173.8L630.1 173.8Q631.1 173.7 631.7 173.5Q632.3 173.4 632.6 173.1Q632.9 172.8 632.9 172.2L632.9 172.2Q632.9 171.1 632.2 170.4Q631.5 169.7 630.0 169.7L630.0 169.7Q629.2 169.7 628.4 170.0Q627.6 170.3 627.0 170.9Q626.4 171.6 626.2 172.7L626.2 172.7L624.0 171.9Q624.2 171.0 624.7 170.2Q625.2 169.4 626.0 168.8Q626.7 168.3 627.8 168.0Q628.8 167.7 630.1 167.7L630.1 167.7Q631.8 167.7 633.0 168.3Q634.2 168.9 634.8 170.1Q635.4 171.3 635.4 173.3L635.4 173.3L635.4 176.4Q635.4 177.2 635.4 178.2Q635.4 179.2 635.5 180.2Q635.6 181.1 635.7 182L635.7 182L633.4 182Q633.3 181.1 633.3 180.3Q633.2 179.4 633.2 178.5L633.2 178.5L632.8 178.5Q632.4 179.5 631.7 180.4Q631.1 181.3 630.0 181.8Q629.0 182.4 627.7 182.4ZM628.4 180.4L628.4 180.4Q629.0 180.4 629.6 180.2Q630.2 180.0 630.8 179.5Q631.4 179.1 632.0 178.4Q632.5 177.8 633.0 176.8L633.0 176.8L633.0 174.7Q632.7 174.8 632.5 174.9L632.5 174.9Q631.8 175.1 630.9 175.3Q630.1 175.4 629.2 175.5Q628.3 175.7 627.6 176.0Q626.9 176.2 626.5 176.8Q626.0 177.3 626.0 178.2L626.0 178.2Q626.0 179.2 626.7 179.8Q627.3 180.4 628.4 180.4ZM643.8 182.3L643.8 182.3Q641.9 182.3 640.9 181.2Q640.0 180.2 640.0 178.0L640.0 178.0L640.0 170.1L637.9 170.1L637.9 168.0L639.2 168.0Q639.9 168.0 640.2 167.8Q640.5 167.6 640.6 167.0L640.6 167.0L640.9 164.9L642.4 164.9L642.4 168.0L646.4 168.0L646.4 170.1L642.4 170.1L642.4 177.9Q642.4 179.0 642.9 179.5Q643.4 180.0 644.3 180.0L644.3 180.0Q644.8 180.0 645.4 179.8Q645.9 179.7 646.5 179.3L646.5 179.3L646.5 181.8Q645.7 182.1 645.0 182.2Q644.4 182.3 643.8 182.3ZM652.7 182.4L652.7 182.4Q651.6 182.4 650.7 181.9Q649.7 181.5 649.2 180.6Q648.7 179.7 648.7 178.4L648.7 178.4Q648.7 177.4 649.0 176.6Q649.4 175.8 650.2 175.3Q650.9 174.8 652.1 174.4Q653.4 174.1 655.1 173.8L655.1 173.8Q656.1 173.7 656.8 173.5Q657.4 173.4 657.7 173.1Q658.0 172.8 658.0 172.2L658.0 172.2Q658.0 171.1 657.3 170.4Q656.6 169.7 655.1 169.7L655.1 169.7Q654.3 169.7 653.5 170.0Q652.7 170.3 652.1 170.9Q651.4 171.6 651.3 172.7L651.3 172.7L649.0 171.9Q649.2 171.0 649.7 170.2Q650.2 169.4 651.0 168.8Q651.8 168.3 652.8 168.0Q653.9 167.7 655.1 167.7L655.1 167.7Q656.9 167.7 658.1 168.3Q659.3 168.9 659.8 170.1Q660.4 171.3 660.4 173.3L660.4 173.3L660.4 176.4Q660.4 177.2 660.5 178.2Q660.5 179.2 660.6 180.2Q660.7 181.1 660.7 182L660.7 182L658.5 182Q658.4 181.1 658.3 180.3Q658.3 179.4 658.2 178.5L658.2 178.5L657.9 178.5Q657.5 179.5 656.8 180.4Q656.1 181.3 655.1 181.8Q654.1 182.4 652.7 182.4ZM653.4 180.4L653.4 180.4Q654.0 180.4 654.6 180.2Q655.3 180.0 655.9 179.5Q656.5 179.1 657.0 178.4Q657.6 177.8 658.0 176.8L658.0 176.8L658.0 174.7Q657.8 174.8 657.6 174.9L657.6 174.9Q656.8 175.1 656.0 175.3Q655.1 175.4 654.3 175.5Q653.4 175.7 652.7 176.0Q652.0 176.2 651.5 176.8Q651.1 177.3 651.1 178.2L651.1 178.2Q651.1 179.2 651.7 179.8Q652.4 180.4 653.4 180.4ZM679.1 182.4L679.1 182.4Q677.2 182.4 675.7 181.8Q674.1 181.2 673.1 180.0Q672.0 178.8 671.5 177.2Q670.9 175.5 670.9 173.3L670.9 173.3Q670.9 171.1 671.5 169.4Q672.0 167.6 673.1 166.4Q674.2 165.2 675.6 164.5Q677.1 163.8 679.0 163.8L679.0 163.8Q680.4 163.8 681.6 164.2Q682.7 164.6 683.6 165.4Q684.5 166.1 685.0 167.2Q685.5 168.2 685.5 169.5L685.5 169.5L683.1 170.1Q683.2 168.7 682.6 167.8Q682.0 166.9 681.0 166.4Q680.0 166.0 678.9 166.0L678.9 166.0Q677.9 166.0 676.9 166.4Q675.9 166.8 675.1 167.7Q674.4 168.6 673.9 169.9Q673.5 171.3 673.5 173.2L673.5 173.2Q673.5 175.7 674.2 177.2Q674.9 178.7 676.2 179.4Q677.5 180.1 679.2 180.1L679.2 180.1Q680.9 180.1 681.8 179.5Q682.8 178.9 683.3 177.8Q683.8 176.7 683.9 175.3L683.9 175.3L686.1 175.7Q686.1 177.1 685.7 178.3Q685.3 179.5 684.4 180.4Q683.6 181.3 682.3 181.8Q681.0 182.4 679.1 182.4ZM691.8 182L689.4 182L689.4 163.1L691.9 163.1L691.9 167.4Q691.9 168.0 691.9 168.6Q691.8 169.3 691.7 169.9Q691.7 170.5 691.6 171.1Q691.5 171.8 691.4 172.4L691.4 172.4L691.9 172.4Q692.3 170.8 692.9 169.8Q693.5 168.7 694.4 168.2Q695.4 167.7 696.7 167.7L696.7 167.7Q699.0 167.7 700.2 169.4Q701.4 171.0 701.4 174.3L701.4 174.3L701.4 182L698.9 182L698.9 174.5Q698.9 172.1 698.2 171.0Q697.4 169.9 695.9 169.9L695.9 169.9Q694.7 169.9 693.8 170.6Q693.0 171.3 692.5 172.6Q692.0 173.8 691.8 175.4L691.8 175.4L691.8 182ZM708.7 182.4L708.7 182.4Q707.5 182.4 706.6 181.9Q705.7 181.5 705.2 180.6Q704.6 179.7 704.6 178.4L704.6 178.4Q704.6 177.4 705.0 176.6Q705.3 175.8 706.1 175.3Q706.9 174.8 708.1 174.4Q709.3 174.1 711.1 173.8L711.1 173.8Q712.1 173.7 712.7 173.5Q713.3 173.4 713.6 173.1Q713.9 172.8 713.9 172.2L713.9 172.2Q713.9 171.1 713.2 170.4Q712.5 169.7 711.0 169.7L711.0 169.7Q710.2 169.7 709.4 170.0Q708.6 170.3 708.0 170.9Q707.4 171.6 707.2 172.7L707.2 172.7L705.0 171.9Q705.2 171.0 705.7 170.2Q706.2 169.4 707.0 168.8Q707.7 168.3 708.8 168.0Q709.8 167.7 711.1 167.7L711.1 167.7Q712.8 167.7 714.0 168.3Q715.2 168.9 715.8 170.1Q716.4 171.3 716.4 173.3L716.4 173.3L716.4 176.4Q716.4 177.2 716.4 178.2Q716.4 179.2 716.5 180.2Q716.6 181.1 716.7 182L716.7 182L714.4 182Q714.3 181.1 714.3 180.3Q714.2 179.4 714.2 178.5L714.2 178.5L713.8 178.5Q713.4 179.5 712.7 180.4Q712.1 181.3 711.0 181.8Q710.0 182.4 708.7 182.4ZM709.4 180.4L709.4 180.4Q710.0 180.4 710.6 180.2Q711.2 180.0 711.8 179.5Q712.4 179.1 713.0 178.4Q713.5 177.8 714.0 176.8L714.0 176.8L714.0 174.7Q713.7 174.8 713.5 174.9L713.5 174.9Q712.8 175.1 711.9 175.3Q711.1 175.4 710.2 175.5Q709.3 175.7 708.6 176.0Q707.9 176.2 707.5 176.8Q707.0 177.3 707.0 178.2L707.0 178.2Q707.0 179.2 707.7 179.8Q708.3 180.4 709.4 180.4ZM722.9 182L720.5 182L720.5 168.0L722.7 168.0L722.5 172.5L722.9 172.5Q723.3 170.8 723.9 169.8Q724.6 168.7 725.5 168.2Q726.5 167.7 727.8 167.7L727.8 167.7Q730.1 167.7 731.3 169.4Q732.5 171.0 732.5 174.3L732.5 174.3L732.5 182L730.0 182L730.0 174.5Q730.0 172.1 729.3 171.0Q728.6 169.9 727.1 169.9L727.1 169.9Q725.8 169.9 724.9 170.7Q724.0 171.5 723.5 172.8Q723.0 174.1 722.9 175.7L722.9 175.7L722.9 182ZM741.8 186.7L741.8 186.7Q739.6 186.7 738.2 186.4Q736.7 186.1 736.1 185.4Q735.4 184.7 735.4 183.6L735.4 183.6Q735.4 182.4 736.4 181.6Q737.3 180.8 739.3 180.5L739.3 180.5L739.3 180.0Q737.9 180.0 737.1 179.7Q736.4 179.3 736.4 178.6L736.4 178.6Q736.4 177.9 737.1 177.4Q737.9 176.9 739.5 176.5L739.5 176.5L739.5 176.0Q737.9 175.9 737.0 175.0Q736.1 174.0 736.1 172.5L736.1 172.5Q736.1 171.1 736.9 170.1Q737.6 169.1 739.0 168.5Q740.5 168.0 742.4 168.0L742.4 168.0L749.0 168.0L749.0 170.0L744.7 169.4L744.7 169.9Q746.3 170.2 747.1 171.0Q747.9 171.7 747.9 173.0L747.9 173.0Q747.9 174.2 747.3 175.1Q746.6 175.9 745.3 176.4Q744.0 176.9 742.1 176.9L742.1 176.9Q741.7 176.9 741.3 176.8Q740.8 176.8 740.2 176.7L740.2 176.7Q739.4 177.1 739.0 177.5Q738.5 177.9 738.5 178.2L738.5 178.2Q738.5 178.5 739.0 178.7Q739.4 178.8 740.0 178.9Q740.6 178.9 741.1 178.9L741.1 178.9L744.2 178.9Q744.8 178.9 745.6 179.1Q746.4 179.2 747.3 179.5Q748.1 179.9 748.6 180.6Q749.2 181.3 749.2 182.6L749.2 182.6Q749.2 184.1 748.4 185.0Q747.5 185.9 745.8 186.3Q744.2 186.7 741.8 186.7ZM741.8 184.7L741.8 184.7Q743.6 184.7 744.8 184.5Q745.9 184.2 746.4 183.8Q746.9 183.3 746.9 182.5L746.9 182.5Q746.9 181.8 746.6 181.4Q746.2 181.0 745.7 180.9Q745.1 180.7 744.6 180.7Q744.1 180.6 743.7 180.6L743.7 180.6L740.5 180.6Q739.0 181.0 738.4 181.6Q737.8 182.2 737.8 182.9L737.8 182.9Q737.8 183.7 738.3 184.1Q738.8 184.4 739.8 184.6Q740.7 184.7 741.8 184.7ZM742.2 175.3L742.2 175.3Q743.9 175.3 744.7 174.6Q745.6 173.9 745.6 172.7L745.6 172.7Q745.6 171.4 744.7 170.6Q743.8 169.8 742.1 169.8L742.1 169.8Q740.4 169.8 739.5 170.6Q738.6 171.3 738.6 172.6L738.6 172.6Q738.6 173.4 739.0 174.0Q739.4 174.6 740.2 174.9Q741.0 175.3 742.2 175.3ZM758.3 182.4L758.3 182.4Q756.6 182.4 755.4 181.9Q754.1 181.4 753.3 180.4Q752.4 179.5 752.0 178.2Q751.5 176.9 751.5 175.3L751.5 175.3Q751.5 173.6 752.0 172.2Q752.4 170.8 753.2 169.8Q754.1 168.8 755.3 168.2Q756.5 167.7 758.1 167.7L758.1 167.7Q759.4 167.7 760.6 168.1Q761.7 168.6 762.5 169.6Q763.3 170.5 763.7 172.0Q764.1 173.4 764.0 175.4L764.0 175.4L753.9 175.4Q754.0 177.8 755.0 179.0L755.0 179.0Q756.2 180.3 758.3 180.3L758.3 180.3Q759.2 180.3 759.8 180.1Q760.4 179.9 760.9 179.6Q761.3 179.2 761.6 178.7Q761.9 178.2 762.1 177.7L762.1 177.7L764.2 178.2Q764.0 179.1 763.5 179.9Q763.0 180.7 762.2 181.2Q761.5 181.8 760.5 182.1Q759.6 182.4 758.3 182.4ZM754.0 173.8L754.0 173.8L761.7 173.7Q761.7 172.7 761.4 172.0L761.4 172.0Q760.9 170.9 760.1 170.3Q759.2 169.8 758.1 169.8L758.1 169.8Q756.8 169.8 755.9 170.4Q754.9 171.1 754.5 172.3L754.5 172.3Q754.2 173.0 754.0 173.8ZM772.7 182.4L772.7 182.4Q771.2 182.4 770.1 182.0Q769.0 181.7 768.2 181.1Q767.5 180.6 767.1 179.8Q766.7 178.9 766.6 178.0L766.6 178.0L768.7 177.4Q768.7 178.3 769.2 179.0Q769.7 179.7 770.6 180.0Q771.5 180.4 772.8 180.4L772.8 180.4Q774.4 180.4 775.3 179.8Q776.2 179.3 776.2 178.3L776.2 178.3Q776.2 177.6 775.7 177.2Q775.2 176.7 774.4 176.5Q773.5 176.2 772.4 176.0L772.4 176.0Q771.4 175.8 770.4 175.5Q769.4 175.3 768.6 174.8Q767.8 174.4 767.4 173.6Q766.9 172.9 766.9 171.8L766.9 171.8Q766.9 170.6 767.5 169.6Q768.2 168.7 769.5 168.2Q770.7 167.7 772.4 167.7L772.4 167.7Q774.2 167.7 775.4 168.2Q776.6 168.7 777.3 169.7Q778.0 170.6 778.1 171.9L778.1 171.9L775.9 172.4Q775.9 171.6 775.5 170.9Q775.0 170.3 774.2 170.0Q773.4 169.7 772.3 169.7L772.3 169.7Q770.9 169.7 770.1 170.2Q769.2 170.8 769.2 171.7L769.2 171.7Q769.2 172.4 769.7 172.8Q770.2 173.3 771.1 173.5Q771.9 173.8 773.0 174.0L773.0 174.0Q774.1 174.2 775.1 174.5Q776.1 174.8 776.8 175.2Q777.6 175.6 778.1 176.3Q778.5 177.1 778.5 178.2L778.5 178.2Q778.5 179.5 777.8 180.5Q777.1 181.4 775.8 181.9Q774.5 182.4 772.7 182.4Z"></path>
</svg>